<mxfile host="Electron" agent="Mozilla/5.0 (Windows NT 10.0; Win64; x64) AppleWebKit/537.36 (KHTML, like Gecko) draw.io/26.0.4 Chrome/128.0.6613.186 Electron/32.2.5 Safari/537.36" version="26.0.4">
  <diagram name="Page-1" id="0yEintYWOWX4rMY7f2As">
    <mxGraphModel dx="2927" dy="865" grid="1" gridSize="10" guides="1" tooltips="1" connect="1" arrows="1" fold="1" page="1" pageScale="1" pageWidth="850" pageHeight="1100" math="0" shadow="0">
      <root>
        <mxCell id="0" />
        <mxCell id="1" parent="0" />
        <mxCell id="j1YCcE-Wg3AFej6a7hgM-369" value="" style="verticalLabelPosition=bottom;verticalAlign=top;html=1;shape=mxgraph.basic.rect;fillColor2=none;strokeWidth=1;size=20;indent=5;" vertex="1" parent="1">
          <mxGeometry x="1020" y="1370" width="880" height="870" as="geometry" />
        </mxCell>
        <mxCell id="j1YCcE-Wg3AFej6a7hgM-1" value="" style="shape=table;startSize=0;container=1;collapsible=0;childLayout=tableLayout;" vertex="1" parent="1">
          <mxGeometry x="100" y="200" width="350" height="40" as="geometry" />
        </mxCell>
        <mxCell id="j1YCcE-Wg3AFej6a7hgM-2" value="" style="shape=tableRow;horizontal=0;startSize=0;swimlaneHead=0;swimlaneBody=0;strokeColor=inherit;top=0;left=0;bottom=0;right=0;collapsible=0;dropTarget=0;fillColor=none;points=[[0,0.5],[1,0.5]];portConstraint=eastwest;" vertex="1" parent="j1YCcE-Wg3AFej6a7hgM-1">
          <mxGeometry width="350" height="40" as="geometry" />
        </mxCell>
        <mxCell id="j1YCcE-Wg3AFej6a7hgM-3" value="Book_id" style="shape=partialRectangle;html=1;whiteSpace=wrap;connectable=0;strokeColor=inherit;overflow=hidden;fillColor=none;top=0;left=0;bottom=0;right=0;pointerEvents=1;" vertex="1" parent="j1YCcE-Wg3AFej6a7hgM-2">
          <mxGeometry width="60" height="40" as="geometry">
            <mxRectangle width="60" height="40" as="alternateBounds" />
          </mxGeometry>
        </mxCell>
        <mxCell id="j1YCcE-Wg3AFej6a7hgM-4" value="Book_name" style="shape=partialRectangle;html=1;whiteSpace=wrap;connectable=0;strokeColor=inherit;overflow=hidden;fillColor=none;top=0;left=0;bottom=0;right=0;pointerEvents=1;" vertex="1" parent="j1YCcE-Wg3AFej6a7hgM-2">
          <mxGeometry x="60" width="80" height="40" as="geometry">
            <mxRectangle width="80" height="40" as="alternateBounds" />
          </mxGeometry>
        </mxCell>
        <mxCell id="j1YCcE-Wg3AFej6a7hgM-5" value="Author_name" style="shape=partialRectangle;html=1;whiteSpace=wrap;connectable=0;strokeColor=inherit;overflow=hidden;fillColor=none;top=0;left=0;bottom=0;right=0;pointerEvents=1;" vertex="1" parent="j1YCcE-Wg3AFej6a7hgM-2">
          <mxGeometry x="140" width="100" height="40" as="geometry">
            <mxRectangle width="100" height="40" as="alternateBounds" />
          </mxGeometry>
        </mxCell>
        <mxCell id="j1YCcE-Wg3AFej6a7hgM-6" value="Author_nationality" style="shape=partialRectangle;html=1;whiteSpace=wrap;connectable=0;strokeColor=inherit;overflow=hidden;fillColor=none;top=0;left=0;bottom=0;right=0;pointerEvents=1;" vertex="1" parent="j1YCcE-Wg3AFej6a7hgM-2">
          <mxGeometry x="240" width="110" height="40" as="geometry">
            <mxRectangle width="110" height="40" as="alternateBounds" />
          </mxGeometry>
        </mxCell>
        <mxCell id="j1YCcE-Wg3AFej6a7hgM-7" value="&lt;b&gt;&lt;font style=&quot;font-size: 17px;&quot;&gt;After applying 2NF&lt;/font&gt;&lt;/b&gt;" style="text;html=1;align=center;verticalAlign=middle;resizable=0;points=[];autosize=1;strokeColor=none;fillColor=none;" vertex="1" parent="1">
          <mxGeometry x="90" y="128" width="170" height="30" as="geometry" />
        </mxCell>
        <mxCell id="j1YCcE-Wg3AFej6a7hgM-16" value="" style="shape=table;startSize=0;container=1;collapsible=0;childLayout=tableLayout;" vertex="1" parent="1">
          <mxGeometry x="100" y="370" width="270" height="40" as="geometry" />
        </mxCell>
        <mxCell id="j1YCcE-Wg3AFej6a7hgM-17" value="" style="shape=tableRow;horizontal=0;startSize=0;swimlaneHead=0;swimlaneBody=0;strokeColor=inherit;top=0;left=0;bottom=0;right=0;collapsible=0;dropTarget=0;fillColor=none;points=[[0,0.5],[1,0.5]];portConstraint=eastwest;" vertex="1" parent="j1YCcE-Wg3AFej6a7hgM-16">
          <mxGeometry width="270" height="40" as="geometry" />
        </mxCell>
        <mxCell id="j1YCcE-Wg3AFej6a7hgM-104" value="Member_id" style="shape=partialRectangle;html=1;whiteSpace=wrap;connectable=0;strokeColor=inherit;overflow=hidden;fillColor=none;top=0;left=0;bottom=0;right=0;pointerEvents=1;" vertex="1" parent="j1YCcE-Wg3AFej6a7hgM-17">
          <mxGeometry width="90" height="40" as="geometry">
            <mxRectangle width="90" height="40" as="alternateBounds" />
          </mxGeometry>
        </mxCell>
        <mxCell id="j1YCcE-Wg3AFej6a7hgM-18" value="Member_Name" style="shape=partialRectangle;html=1;whiteSpace=wrap;connectable=0;strokeColor=inherit;overflow=hidden;fillColor=none;top=0;left=0;bottom=0;right=0;pointerEvents=1;" vertex="1" parent="j1YCcE-Wg3AFej6a7hgM-17">
          <mxGeometry x="90" width="90" height="40" as="geometry">
            <mxRectangle width="90" height="40" as="alternateBounds" />
          </mxGeometry>
        </mxCell>
        <mxCell id="j1YCcE-Wg3AFej6a7hgM-19" value="Member_phone" style="shape=partialRectangle;html=1;whiteSpace=wrap;connectable=0;strokeColor=inherit;overflow=hidden;fillColor=none;top=0;left=0;bottom=0;right=0;pointerEvents=1;" vertex="1" parent="j1YCcE-Wg3AFej6a7hgM-17">
          <mxGeometry x="180" width="90" height="40" as="geometry">
            <mxRectangle width="90" height="40" as="alternateBounds" />
          </mxGeometry>
        </mxCell>
        <mxCell id="j1YCcE-Wg3AFej6a7hgM-22" value="" style="shape=table;startSize=0;container=1;collapsible=0;childLayout=tableLayout;" vertex="1" parent="1">
          <mxGeometry x="100" y="280" width="450" height="40" as="geometry" />
        </mxCell>
        <mxCell id="j1YCcE-Wg3AFej6a7hgM-23" value="" style="shape=tableRow;horizontal=0;startSize=0;swimlaneHead=0;swimlaneBody=0;strokeColor=inherit;top=0;left=0;bottom=0;right=0;collapsible=0;dropTarget=0;fillColor=none;points=[[0,0.5],[1,0.5]];portConstraint=eastwest;" vertex="1" parent="j1YCcE-Wg3AFej6a7hgM-22">
          <mxGeometry width="450" height="40" as="geometry" />
        </mxCell>
        <mxCell id="j1YCcE-Wg3AFej6a7hgM-24" value="Borrow_id" style="shape=partialRectangle;html=1;whiteSpace=wrap;connectable=0;strokeColor=inherit;overflow=hidden;fillColor=none;top=0;left=0;bottom=0;right=0;pointerEvents=1;" vertex="1" parent="j1YCcE-Wg3AFej6a7hgM-23">
          <mxGeometry width="60" height="40" as="geometry">
            <mxRectangle width="60" height="40" as="alternateBounds" />
          </mxGeometry>
        </mxCell>
        <mxCell id="j1YCcE-Wg3AFej6a7hgM-25" value="Borrow_date" style="shape=partialRectangle;html=1;whiteSpace=wrap;connectable=0;strokeColor=inherit;overflow=hidden;fillColor=none;top=0;left=0;bottom=0;right=0;pointerEvents=1;" vertex="1" parent="j1YCcE-Wg3AFej6a7hgM-23">
          <mxGeometry x="60" width="70" height="40" as="geometry">
            <mxRectangle width="70" height="40" as="alternateBounds" />
          </mxGeometry>
        </mxCell>
        <mxCell id="j1YCcE-Wg3AFej6a7hgM-26" value="&#xa;&lt;span style=&quot;color: rgb(0, 0, 0); font-family: Helvetica; font-size: 12px; font-style: normal; font-variant-ligatures: normal; font-variant-caps: normal; font-weight: 400; letter-spacing: normal; orphans: 2; text-align: center; text-indent: 0px; text-transform: none; widows: 2; word-spacing: 0px; -webkit-text-stroke-width: 0px; white-space: normal; background-color: rgb(251, 251, 251); text-decoration-thickness: initial; text-decoration-style: initial; text-decoration-color: initial; display: inline !important; float: none;&quot;&gt;Return_date&lt;/span&gt;&#xa;&#xa;" style="shape=partialRectangle;html=1;whiteSpace=wrap;connectable=0;strokeColor=inherit;overflow=hidden;fillColor=none;top=0;left=0;bottom=0;right=0;pointerEvents=1;" vertex="1" parent="j1YCcE-Wg3AFej6a7hgM-23">
          <mxGeometry x="130" width="100" height="40" as="geometry">
            <mxRectangle width="100" height="40" as="alternateBounds" />
          </mxGeometry>
        </mxCell>
        <mxCell id="j1YCcE-Wg3AFej6a7hgM-27" value="&#xa;&lt;span style=&quot;color: rgb(0, 0, 0); font-family: Helvetica; font-size: 12px; font-style: normal; font-variant-ligatures: normal; font-variant-caps: normal; font-weight: 400; letter-spacing: normal; orphans: 2; text-align: center; text-indent: 0px; text-transform: none; widows: 2; word-spacing: 0px; -webkit-text-stroke-width: 0px; white-space: normal; background-color: rgb(251, 251, 251); text-decoration-thickness: initial; text-decoration-style: initial; text-decoration-color: initial; display: inline !important; float: none;&quot;&gt;Fine_amount&lt;/span&gt;&#xa;&#xa;" style="shape=partialRectangle;html=1;whiteSpace=wrap;connectable=0;strokeColor=inherit;overflow=hidden;fillColor=none;top=0;left=0;bottom=0;right=0;pointerEvents=1;" vertex="1" parent="j1YCcE-Wg3AFej6a7hgM-23">
          <mxGeometry x="230" width="110" height="40" as="geometry">
            <mxRectangle width="110" height="40" as="alternateBounds" />
          </mxGeometry>
        </mxCell>
        <mxCell id="j1YCcE-Wg3AFej6a7hgM-103" value="Member_Name" style="shape=partialRectangle;html=1;whiteSpace=wrap;connectable=0;strokeColor=inherit;overflow=hidden;fillColor=none;top=0;left=0;bottom=0;right=0;pointerEvents=1;" vertex="1" parent="j1YCcE-Wg3AFej6a7hgM-23">
          <mxGeometry x="340" width="110" height="40" as="geometry">
            <mxRectangle width="110" height="40" as="alternateBounds" />
          </mxGeometry>
        </mxCell>
        <mxCell id="j1YCcE-Wg3AFej6a7hgM-34" value="" style="shape=table;startSize=0;container=1;collapsible=0;childLayout=tableLayout;" vertex="1" parent="1">
          <mxGeometry x="110" y="670" width="360" height="40" as="geometry" />
        </mxCell>
        <mxCell id="j1YCcE-Wg3AFej6a7hgM-35" value="" style="shape=tableRow;horizontal=0;startSize=0;swimlaneHead=0;swimlaneBody=0;strokeColor=inherit;top=0;left=0;bottom=0;right=0;collapsible=0;dropTarget=0;fillColor=none;points=[[0,0.5],[1,0.5]];portConstraint=eastwest;" vertex="1" parent="j1YCcE-Wg3AFej6a7hgM-34">
          <mxGeometry width="360" height="40" as="geometry" />
        </mxCell>
        <mxCell id="j1YCcE-Wg3AFej6a7hgM-151" value="Author_id" style="shape=partialRectangle;html=1;whiteSpace=wrap;connectable=0;strokeColor=inherit;overflow=hidden;fillColor=none;top=0;left=0;bottom=0;right=0;pointerEvents=1;" vertex="1" parent="j1YCcE-Wg3AFej6a7hgM-35">
          <mxGeometry width="120" height="40" as="geometry">
            <mxRectangle width="120" height="40" as="alternateBounds" />
          </mxGeometry>
        </mxCell>
        <mxCell id="j1YCcE-Wg3AFej6a7hgM-36" value="Author_Name" style="shape=partialRectangle;html=1;whiteSpace=wrap;connectable=0;strokeColor=inherit;overflow=hidden;fillColor=none;top=0;left=0;bottom=0;right=0;pointerEvents=1;" vertex="1" parent="j1YCcE-Wg3AFej6a7hgM-35">
          <mxGeometry x="120" width="120" height="40" as="geometry">
            <mxRectangle width="120" height="40" as="alternateBounds" />
          </mxGeometry>
        </mxCell>
        <mxCell id="j1YCcE-Wg3AFej6a7hgM-37" value="Author_Nationality" style="shape=partialRectangle;html=1;whiteSpace=wrap;connectable=0;strokeColor=inherit;overflow=hidden;fillColor=none;top=0;left=0;bottom=0;right=0;pointerEvents=1;" vertex="1" parent="j1YCcE-Wg3AFej6a7hgM-35">
          <mxGeometry x="240" width="120" height="40" as="geometry">
            <mxRectangle width="120" height="40" as="alternateBounds" />
          </mxGeometry>
        </mxCell>
        <mxCell id="j1YCcE-Wg3AFej6a7hgM-42" value="" style="shape=table;startSize=0;container=1;collapsible=0;childLayout=tableLayout;" vertex="1" parent="1">
          <mxGeometry x="100" y="570" width="260" height="40" as="geometry" />
        </mxCell>
        <mxCell id="j1YCcE-Wg3AFej6a7hgM-43" value="" style="shape=tableRow;horizontal=0;startSize=0;swimlaneHead=0;swimlaneBody=0;strokeColor=inherit;top=0;left=0;bottom=0;right=0;collapsible=0;dropTarget=0;fillColor=none;points=[[0,0.5],[1,0.5]];portConstraint=eastwest;" vertex="1" parent="j1YCcE-Wg3AFej6a7hgM-42">
          <mxGeometry width="260" height="40" as="geometry" />
        </mxCell>
        <mxCell id="j1YCcE-Wg3AFej6a7hgM-44" value="&#xa;&lt;span style=&quot;color: rgb(0, 0, 0); font-family: Helvetica; font-size: 12px; font-style: normal; font-variant-ligatures: normal; font-variant-caps: normal; font-weight: 400; letter-spacing: normal; orphans: 2; text-align: center; text-indent: 0px; text-transform: none; widows: 2; word-spacing: 0px; -webkit-text-stroke-width: 0px; white-space: normal; background-color: rgb(251, 251, 251); text-decoration-thickness: initial; text-decoration-style: initial; text-decoration-color: initial; display: inline !important; float: none;&quot;&gt;Book_id&lt;/span&gt;&#xa;&#xa;" style="shape=partialRectangle;html=1;whiteSpace=wrap;connectable=0;strokeColor=inherit;overflow=hidden;fillColor=none;top=0;left=0;bottom=0;right=0;pointerEvents=1;" vertex="1" parent="j1YCcE-Wg3AFej6a7hgM-43">
          <mxGeometry width="60" height="40" as="geometry">
            <mxRectangle width="60" height="40" as="alternateBounds" />
          </mxGeometry>
        </mxCell>
        <mxCell id="j1YCcE-Wg3AFej6a7hgM-45" value="Book_name" style="shape=partialRectangle;html=1;whiteSpace=wrap;connectable=0;strokeColor=inherit;overflow=hidden;fillColor=none;top=0;left=0;bottom=0;right=0;pointerEvents=1;" vertex="1" parent="j1YCcE-Wg3AFej6a7hgM-43">
          <mxGeometry x="60" width="100" height="40" as="geometry">
            <mxRectangle width="100" height="40" as="alternateBounds" />
          </mxGeometry>
        </mxCell>
        <mxCell id="j1YCcE-Wg3AFej6a7hgM-46" value="Author_name" style="shape=partialRectangle;html=1;whiteSpace=wrap;connectable=0;strokeColor=inherit;overflow=hidden;fillColor=none;top=0;left=0;bottom=0;right=0;pointerEvents=1;" vertex="1" parent="j1YCcE-Wg3AFej6a7hgM-43">
          <mxGeometry x="160" width="100" height="40" as="geometry">
            <mxRectangle width="100" height="40" as="alternateBounds" />
          </mxGeometry>
        </mxCell>
        <mxCell id="j1YCcE-Wg3AFej6a7hgM-47" value="" style="shape=table;startSize=0;container=1;collapsible=0;childLayout=tableLayout;" vertex="1" parent="1">
          <mxGeometry x="120" y="760" width="320" height="40" as="geometry" />
        </mxCell>
        <mxCell id="j1YCcE-Wg3AFej6a7hgM-48" value="" style="shape=tableRow;horizontal=0;startSize=0;swimlaneHead=0;swimlaneBody=0;strokeColor=inherit;top=0;left=0;bottom=0;right=0;collapsible=0;dropTarget=0;fillColor=none;points=[[0,0.5],[1,0.5]];portConstraint=eastwest;" vertex="1" parent="j1YCcE-Wg3AFej6a7hgM-47">
          <mxGeometry width="320" height="40" as="geometry" />
        </mxCell>
        <mxCell id="j1YCcE-Wg3AFej6a7hgM-49" value="borrow_id" style="shape=partialRectangle;html=1;whiteSpace=wrap;connectable=0;strokeColor=inherit;overflow=hidden;fillColor=none;top=0;left=0;bottom=0;right=0;pointerEvents=1;" vertex="1" parent="j1YCcE-Wg3AFej6a7hgM-48">
          <mxGeometry width="66" height="40" as="geometry">
            <mxRectangle width="66" height="40" as="alternateBounds" />
          </mxGeometry>
        </mxCell>
        <mxCell id="j1YCcE-Wg3AFej6a7hgM-50" value="Borrow_date" style="shape=partialRectangle;html=1;whiteSpace=wrap;connectable=0;strokeColor=inherit;overflow=hidden;fillColor=none;top=0;left=0;bottom=0;right=0;pointerEvents=1;" vertex="1" parent="j1YCcE-Wg3AFej6a7hgM-48">
          <mxGeometry x="66" width="87" height="40" as="geometry">
            <mxRectangle width="87" height="40" as="alternateBounds" />
          </mxGeometry>
        </mxCell>
        <mxCell id="j1YCcE-Wg3AFej6a7hgM-51" value="Return_Date" style="shape=partialRectangle;html=1;whiteSpace=wrap;connectable=0;strokeColor=inherit;overflow=hidden;fillColor=none;top=0;left=0;bottom=0;right=0;pointerEvents=1;" vertex="1" parent="j1YCcE-Wg3AFej6a7hgM-48">
          <mxGeometry x="153" width="77" height="40" as="geometry">
            <mxRectangle width="77" height="40" as="alternateBounds" />
          </mxGeometry>
        </mxCell>
        <mxCell id="j1YCcE-Wg3AFej6a7hgM-105" value="Member_name" style="shape=partialRectangle;html=1;whiteSpace=wrap;connectable=0;strokeColor=inherit;overflow=hidden;fillColor=none;top=0;left=0;bottom=0;right=0;pointerEvents=1;" vertex="1" parent="j1YCcE-Wg3AFej6a7hgM-48">
          <mxGeometry x="230" width="90" height="40" as="geometry">
            <mxRectangle width="90" height="40" as="alternateBounds" />
          </mxGeometry>
        </mxCell>
        <mxCell id="j1YCcE-Wg3AFej6a7hgM-59" value="&lt;b style=&quot;forced-color-adjust: none; color: rgb(0, 0, 0); font-family: Helvetica; font-size: 12px; font-style: normal; font-variant-ligatures: normal; font-variant-caps: normal; letter-spacing: normal; orphans: 2; text-align: center; text-indent: 0px; text-transform: none; widows: 2; word-spacing: 0px; -webkit-text-stroke-width: 0px; white-space: nowrap; background-color: rgb(251, 251, 251); text-decoration-thickness: initial; text-decoration-style: initial; text-decoration-color: initial;&quot;&gt;&lt;font style=&quot;forced-color-adjust: none; font-size: 17px;&quot;&gt;After applying 3NF&lt;/font&gt;&lt;/b&gt;" style="text;whiteSpace=wrap;html=1;" vertex="1" parent="1">
          <mxGeometry x="100" y="510" width="180" height="40" as="geometry" />
        </mxCell>
        <mxCell id="j1YCcE-Wg3AFej6a7hgM-60" value="Book" style="text;html=1;align=center;verticalAlign=middle;resizable=0;points=[];autosize=1;strokeColor=none;fillColor=none;" vertex="1" parent="1">
          <mxGeometry x="100" y="540" width="50" height="30" as="geometry" />
        </mxCell>
        <mxCell id="j1YCcE-Wg3AFej6a7hgM-61" value="Author" style="text;html=1;align=center;verticalAlign=middle;resizable=0;points=[];autosize=1;strokeColor=none;fillColor=none;" vertex="1" parent="1">
          <mxGeometry x="110" y="640" width="60" height="30" as="geometry" />
        </mxCell>
        <mxCell id="j1YCcE-Wg3AFej6a7hgM-62" value="Borrow" style="text;html=1;align=center;verticalAlign=middle;resizable=0;points=[];autosize=1;strokeColor=none;fillColor=none;" vertex="1" parent="1">
          <mxGeometry x="120" y="730" width="60" height="30" as="geometry" />
        </mxCell>
        <mxCell id="j1YCcE-Wg3AFej6a7hgM-64" value="Book" style="text;html=1;align=center;verticalAlign=middle;resizable=0;points=[];autosize=1;strokeColor=none;fillColor=none;" vertex="1" parent="1">
          <mxGeometry x="95" y="168" width="50" height="30" as="geometry" />
        </mxCell>
        <mxCell id="j1YCcE-Wg3AFej6a7hgM-66" value="Borrow" style="text;html=1;align=center;verticalAlign=middle;resizable=0;points=[];autosize=1;strokeColor=none;fillColor=none;" vertex="1" parent="1">
          <mxGeometry x="90" y="248" width="60" height="30" as="geometry" />
        </mxCell>
        <mxCell id="j1YCcE-Wg3AFej6a7hgM-67" value="Member" style="text;html=1;align=center;verticalAlign=middle;resizable=0;points=[];autosize=1;strokeColor=none;fillColor=none;" vertex="1" parent="1">
          <mxGeometry x="95" y="340" width="70" height="30" as="geometry" />
        </mxCell>
        <mxCell id="j1YCcE-Wg3AFej6a7hgM-68" value="" style="shape=table;startSize=0;container=1;collapsible=0;childLayout=tableLayout;" vertex="1" parent="1">
          <mxGeometry x="120" y="970" width="270" height="40" as="geometry" />
        </mxCell>
        <mxCell id="j1YCcE-Wg3AFej6a7hgM-69" value="" style="shape=tableRow;horizontal=0;startSize=0;swimlaneHead=0;swimlaneBody=0;strokeColor=inherit;top=0;left=0;bottom=0;right=0;collapsible=0;dropTarget=0;fillColor=none;points=[[0,0.5],[1,0.5]];portConstraint=eastwest;" vertex="1" parent="j1YCcE-Wg3AFej6a7hgM-68">
          <mxGeometry width="270" height="40" as="geometry" />
        </mxCell>
        <mxCell id="j1YCcE-Wg3AFej6a7hgM-138" value="Member_id" style="shape=partialRectangle;html=1;whiteSpace=wrap;connectable=0;strokeColor=inherit;overflow=hidden;fillColor=none;top=0;left=0;bottom=0;right=0;pointerEvents=1;" vertex="1" parent="j1YCcE-Wg3AFej6a7hgM-69">
          <mxGeometry width="90" height="40" as="geometry">
            <mxRectangle width="90" height="40" as="alternateBounds" />
          </mxGeometry>
        </mxCell>
        <mxCell id="j1YCcE-Wg3AFej6a7hgM-70" value="Member_Name" style="shape=partialRectangle;html=1;whiteSpace=wrap;connectable=0;strokeColor=inherit;overflow=hidden;fillColor=none;top=0;left=0;bottom=0;right=0;pointerEvents=1;" vertex="1" parent="j1YCcE-Wg3AFej6a7hgM-69">
          <mxGeometry x="90" width="90" height="40" as="geometry">
            <mxRectangle width="90" height="40" as="alternateBounds" />
          </mxGeometry>
        </mxCell>
        <mxCell id="j1YCcE-Wg3AFej6a7hgM-71" value="Member_phone" style="shape=partialRectangle;html=1;whiteSpace=wrap;connectable=0;strokeColor=inherit;overflow=hidden;fillColor=none;top=0;left=0;bottom=0;right=0;pointerEvents=1;" vertex="1" parent="j1YCcE-Wg3AFej6a7hgM-69">
          <mxGeometry x="180" width="90" height="40" as="geometry">
            <mxRectangle width="90" height="40" as="alternateBounds" />
          </mxGeometry>
        </mxCell>
        <mxCell id="j1YCcE-Wg3AFej6a7hgM-73" value="Member" style="text;html=1;align=center;verticalAlign=middle;resizable=0;points=[];autosize=1;strokeColor=none;fillColor=none;" vertex="1" parent="1">
          <mxGeometry x="115" y="938" width="70" height="30" as="geometry" />
        </mxCell>
        <mxCell id="j1YCcE-Wg3AFej6a7hgM-74" value="&lt;font style=&quot;font-size: 16px;&quot;&gt;Attributes within each book depend entirely on Book_id, Author and his nationality are associated with the Book.&lt;br&gt;For member, the name is dependent on Borrow_id but hos phone is irrelavent..&lt;/font&gt;&lt;div&gt;&lt;br&gt;&lt;/div&gt;" style="text;html=1;align=center;verticalAlign=middle;resizable=0;points=[];autosize=1;strokeColor=none;fillColor=none;" vertex="1" parent="1">
          <mxGeometry x="-115" y="435" width="810" height="70" as="geometry" />
        </mxCell>
        <mxCell id="j1YCcE-Wg3AFej6a7hgM-107" value="" style="group" vertex="1" connectable="0" parent="1">
          <mxGeometry x="110" y="830" width="155" height="70" as="geometry" />
        </mxCell>
        <mxCell id="j1YCcE-Wg3AFej6a7hgM-55" value="" style="shape=table;startSize=0;container=1;collapsible=0;childLayout=tableLayout;" vertex="1" parent="j1YCcE-Wg3AFej6a7hgM-107">
          <mxGeometry x="5" y="30" width="150" height="40" as="geometry" />
        </mxCell>
        <mxCell id="j1YCcE-Wg3AFej6a7hgM-56" value="" style="shape=tableRow;horizontal=0;startSize=0;swimlaneHead=0;swimlaneBody=0;strokeColor=inherit;top=0;left=0;bottom=0;right=0;collapsible=0;dropTarget=0;fillColor=none;points=[[0,0.5],[1,0.5]];portConstraint=eastwest;" vertex="1" parent="j1YCcE-Wg3AFej6a7hgM-55">
          <mxGeometry width="150" height="40" as="geometry" />
        </mxCell>
        <mxCell id="j1YCcE-Wg3AFej6a7hgM-57" value="Borrow_id" style="shape=partialRectangle;html=1;whiteSpace=wrap;connectable=0;strokeColor=inherit;overflow=hidden;fillColor=none;top=0;left=0;bottom=0;right=0;pointerEvents=1;" vertex="1" parent="j1YCcE-Wg3AFej6a7hgM-56">
          <mxGeometry width="65" height="40" as="geometry">
            <mxRectangle width="65" height="40" as="alternateBounds" />
          </mxGeometry>
        </mxCell>
        <mxCell id="j1YCcE-Wg3AFej6a7hgM-58" value="Fine_amount" style="shape=partialRectangle;html=1;whiteSpace=wrap;connectable=0;strokeColor=inherit;overflow=hidden;fillColor=none;top=0;left=0;bottom=0;right=0;pointerEvents=1;" vertex="1" parent="j1YCcE-Wg3AFej6a7hgM-56">
          <mxGeometry x="65" width="85" height="40" as="geometry">
            <mxRectangle width="85" height="40" as="alternateBounds" />
          </mxGeometry>
        </mxCell>
        <mxCell id="j1YCcE-Wg3AFej6a7hgM-63" value="Borrow_Fine" style="text;html=1;align=center;verticalAlign=middle;resizable=0;points=[];autosize=1;strokeColor=none;fillColor=none;" vertex="1" parent="j1YCcE-Wg3AFej6a7hgM-107">
          <mxGeometry width="90" height="30" as="geometry" />
        </mxCell>
        <mxCell id="j1YCcE-Wg3AFej6a7hgM-108" value="&lt;font style=&quot;font-size: 16px;&quot;&gt;Author nationality relates to his name and not the Book info&lt;/font&gt;&lt;div&gt;&lt;font style=&quot;font-size: 16px;&quot;&gt;Borrow_Fine is its own table because we need only the the Borrow_id and rest will come up, Borrow date is unrelated to fine.&lt;/font&gt;&lt;/div&gt;" style="text;html=1;align=center;verticalAlign=middle;resizable=0;points=[];autosize=1;strokeColor=none;fillColor=none;" vertex="1" parent="1">
          <mxGeometry x="-90" y="1045" width="910" height="50" as="geometry" />
        </mxCell>
        <mxCell id="j1YCcE-Wg3AFej6a7hgM-180" style="edgeStyle=orthogonalEdgeStyle;rounded=0;orthogonalLoop=1;jettySize=auto;html=1;entryX=0.5;entryY=0;entryDx=0;entryDy=0;" edge="1" parent="1" source="j1YCcE-Wg3AFej6a7hgM-112" target="j1YCcE-Wg3AFej6a7hgM-179">
          <mxGeometry relative="1" as="geometry" />
        </mxCell>
        <mxCell id="j1YCcE-Wg3AFej6a7hgM-136" value="" style="group" vertex="1" connectable="0" parent="1">
          <mxGeometry x="410" y="2230" width="295" height="120" as="geometry" />
        </mxCell>
        <mxCell id="j1YCcE-Wg3AFej6a7hgM-132" style="edgeStyle=orthogonalEdgeStyle;rounded=0;orthogonalLoop=1;jettySize=auto;html=1;entryX=0.5;entryY=1;entryDx=0;entryDy=0;" edge="1" parent="j1YCcE-Wg3AFej6a7hgM-136" target="j1YCcE-Wg3AFej6a7hgM-129">
          <mxGeometry relative="1" as="geometry">
            <mxPoint x="85" y="80.05882352941171" as="sourcePoint" />
            <Array as="points">
              <mxPoint x="65" y="80" />
              <mxPoint x="65" y="60" />
              <mxPoint x="50" y="60" />
            </Array>
          </mxGeometry>
        </mxCell>
        <mxCell id="j1YCcE-Wg3AFej6a7hgM-133" value="" style="edgeStyle=orthogonalEdgeStyle;rounded=0;orthogonalLoop=1;jettySize=auto;html=1;" edge="1" parent="j1YCcE-Wg3AFej6a7hgM-136" target="j1YCcE-Wg3AFej6a7hgM-130">
          <mxGeometry relative="1" as="geometry">
            <mxPoint x="135" y="80" as="sourcePoint" />
          </mxGeometry>
        </mxCell>
        <mxCell id="j1YCcE-Wg3AFej6a7hgM-129" value="id" style="ellipse;whiteSpace=wrap;html=1;align=center;" vertex="1" parent="j1YCcE-Wg3AFej6a7hgM-136">
          <mxGeometry width="100" height="40" as="geometry" />
        </mxCell>
        <mxCell id="j1YCcE-Wg3AFej6a7hgM-130" value="name" style="ellipse;whiteSpace=wrap;html=1;align=center;" vertex="1" parent="j1YCcE-Wg3AFej6a7hgM-136">
          <mxGeometry x="100" width="100" height="40" as="geometry" />
        </mxCell>
        <mxCell id="j1YCcE-Wg3AFej6a7hgM-182" value="Book" style="shape=ext;margin=3;double=1;whiteSpace=wrap;html=1;align=center;" vertex="1" parent="j1YCcE-Wg3AFej6a7hgM-136">
          <mxGeometry x="85" y="80" width="100" height="40" as="geometry" />
        </mxCell>
        <mxCell id="j1YCcE-Wg3AFej6a7hgM-137" value="" style="group" vertex="1" connectable="0" parent="1">
          <mxGeometry x="420" y="1730" width="385" height="130" as="geometry" />
        </mxCell>
        <mxCell id="j1YCcE-Wg3AFej6a7hgM-135" value="" style="group" vertex="1" connectable="0" parent="j1YCcE-Wg3AFej6a7hgM-137">
          <mxGeometry width="300" height="130" as="geometry" />
        </mxCell>
        <mxCell id="j1YCcE-Wg3AFej6a7hgM-124" value="" style="edgeStyle=orthogonalEdgeStyle;rounded=0;orthogonalLoop=1;jettySize=auto;html=1;entryX=0.59;entryY=0.965;entryDx=0;entryDy=0;entryPerimeter=0;" edge="1" parent="j1YCcE-Wg3AFej6a7hgM-135" target="j1YCcE-Wg3AFej6a7hgM-114">
          <mxGeometry relative="1" as="geometry">
            <mxPoint x="105" y="110.05882352941194" as="sourcePoint" />
            <mxPoint x="15" y="110" as="targetPoint" />
          </mxGeometry>
        </mxCell>
        <mxCell id="j1YCcE-Wg3AFej6a7hgM-125" value="" style="edgeStyle=orthogonalEdgeStyle;rounded=0;orthogonalLoop=1;jettySize=auto;html=1;" edge="1" parent="j1YCcE-Wg3AFej6a7hgM-135" target="j1YCcE-Wg3AFej6a7hgM-116">
          <mxGeometry relative="1" as="geometry">
            <mxPoint x="155.05882352941194" y="90" as="sourcePoint" />
          </mxGeometry>
        </mxCell>
        <mxCell id="j1YCcE-Wg3AFej6a7hgM-128" style="edgeStyle=orthogonalEdgeStyle;rounded=0;orthogonalLoop=1;jettySize=auto;html=1;entryX=0.5;entryY=1;entryDx=0;entryDy=0;" edge="1" parent="j1YCcE-Wg3AFej6a7hgM-135" target="j1YCcE-Wg3AFej6a7hgM-115">
          <mxGeometry relative="1" as="geometry">
            <mxPoint x="155.05882352941194" y="90" as="sourcePoint" />
          </mxGeometry>
        </mxCell>
        <mxCell id="j1YCcE-Wg3AFej6a7hgM-114" value="id" style="ellipse;whiteSpace=wrap;html=1;align=center;" vertex="1" parent="j1YCcE-Wg3AFej6a7hgM-135">
          <mxGeometry y="10" width="100" height="40" as="geometry" />
        </mxCell>
        <mxCell id="j1YCcE-Wg3AFej6a7hgM-115" value="Borrow_date" style="ellipse;whiteSpace=wrap;html=1;align=center;" vertex="1" parent="j1YCcE-Wg3AFej6a7hgM-135">
          <mxGeometry x="200" width="100" height="40" as="geometry" />
        </mxCell>
        <mxCell id="j1YCcE-Wg3AFej6a7hgM-116" value="Return_date" style="ellipse;whiteSpace=wrap;html=1;align=center;" vertex="1" parent="j1YCcE-Wg3AFej6a7hgM-135">
          <mxGeometry x="100" width="100" height="40" as="geometry" />
        </mxCell>
        <mxCell id="j1YCcE-Wg3AFej6a7hgM-170" value="Borrow" style="shape=ext;margin=3;double=1;whiteSpace=wrap;html=1;align=center;" vertex="1" parent="j1YCcE-Wg3AFej6a7hgM-135">
          <mxGeometry x="110" y="90" width="100" height="40" as="geometry" />
        </mxCell>
        <mxCell id="j1YCcE-Wg3AFej6a7hgM-185" style="edgeStyle=orthogonalEdgeStyle;rounded=0;orthogonalLoop=1;jettySize=auto;html=1;entryX=0.5;entryY=0;entryDx=0;entryDy=0;" edge="1" parent="j1YCcE-Wg3AFej6a7hgM-135" target="j1YCcE-Wg3AFej6a7hgM-184">
          <mxGeometry relative="1" as="geometry">
            <mxPoint x="200" y="129.99882352941177" as="sourcePoint" />
            <mxPoint x="450" y="319.94000000000005" as="targetPoint" />
          </mxGeometry>
        </mxCell>
        <mxCell id="j1YCcE-Wg3AFej6a7hgM-208" value="1" style="text;html=1;align=center;verticalAlign=middle;resizable=0;points=[];autosize=1;strokeColor=none;fillColor=none;" vertex="1" parent="j1YCcE-Wg3AFej6a7hgM-135">
          <mxGeometry x="200" y="100" width="30" height="30" as="geometry" />
        </mxCell>
        <mxCell id="j1YCcE-Wg3AFej6a7hgM-168" value="" style="group" vertex="1" connectable="0" parent="1">
          <mxGeometry x="-140" y="2250" width="310" height="110" as="geometry" />
        </mxCell>
        <mxCell id="j1YCcE-Wg3AFej6a7hgM-165" style="edgeStyle=orthogonalEdgeStyle;rounded=0;orthogonalLoop=1;jettySize=auto;html=1;entryX=0.5;entryY=1;entryDx=0;entryDy=0;" edge="1" parent="j1YCcE-Wg3AFej6a7hgM-168" source="j1YCcE-Wg3AFej6a7hgM-110" target="j1YCcE-Wg3AFej6a7hgM-149">
          <mxGeometry relative="1" as="geometry" />
        </mxCell>
        <mxCell id="j1YCcE-Wg3AFej6a7hgM-166" style="edgeStyle=orthogonalEdgeStyle;rounded=0;orthogonalLoop=1;jettySize=auto;html=1;entryX=0.78;entryY=1;entryDx=0;entryDy=0;entryPerimeter=0;" edge="1" parent="j1YCcE-Wg3AFej6a7hgM-168" source="j1YCcE-Wg3AFej6a7hgM-110" target="j1YCcE-Wg3AFej6a7hgM-150">
          <mxGeometry relative="1" as="geometry">
            <mxPoint x="209.99999999999977" y="50" as="targetPoint" />
          </mxGeometry>
        </mxCell>
        <mxCell id="j1YCcE-Wg3AFej6a7hgM-167" style="edgeStyle=orthogonalEdgeStyle;rounded=0;orthogonalLoop=1;jettySize=auto;html=1;" edge="1" parent="j1YCcE-Wg3AFej6a7hgM-168" source="j1YCcE-Wg3AFej6a7hgM-110" target="j1YCcE-Wg3AFej6a7hgM-152">
          <mxGeometry relative="1" as="geometry" />
        </mxCell>
        <mxCell id="j1YCcE-Wg3AFej6a7hgM-110" value="Author" style="whiteSpace=wrap;html=1;align=center;" vertex="1" parent="j1YCcE-Wg3AFej6a7hgM-168">
          <mxGeometry x="100" y="70" width="100" height="40" as="geometry" />
        </mxCell>
        <mxCell id="j1YCcE-Wg3AFej6a7hgM-149" value="id" style="ellipse;whiteSpace=wrap;html=1;align=center;" vertex="1" parent="j1YCcE-Wg3AFej6a7hgM-168">
          <mxGeometry width="100" height="40" as="geometry" />
        </mxCell>
        <mxCell id="j1YCcE-Wg3AFej6a7hgM-150" value="Name" style="ellipse;whiteSpace=wrap;html=1;align=center;" vertex="1" parent="j1YCcE-Wg3AFej6a7hgM-168">
          <mxGeometry x="110" width="100" height="40" as="geometry" />
        </mxCell>
        <mxCell id="j1YCcE-Wg3AFej6a7hgM-152" value="Naationality" style="ellipse;whiteSpace=wrap;html=1;align=center;" vertex="1" parent="j1YCcE-Wg3AFej6a7hgM-168">
          <mxGeometry x="210" width="100" height="40" as="geometry" />
        </mxCell>
        <mxCell id="j1YCcE-Wg3AFej6a7hgM-181" style="edgeStyle=orthogonalEdgeStyle;rounded=0;orthogonalLoop=1;jettySize=auto;html=1;entryX=0.5;entryY=1;entryDx=0;entryDy=0;" edge="1" parent="1" source="j1YCcE-Wg3AFej6a7hgM-179" target="j1YCcE-Wg3AFej6a7hgM-170">
          <mxGeometry relative="1" as="geometry" />
        </mxCell>
        <mxCell id="j1YCcE-Wg3AFej6a7hgM-179" value="Borrows" style="shape=rhombus;double=1;perimeter=rhombusPerimeter;whiteSpace=wrap;html=1;align=center;" vertex="1" parent="1">
          <mxGeometry x="95" y="2070" width="120" height="60" as="geometry" />
        </mxCell>
        <mxCell id="j1YCcE-Wg3AFej6a7hgM-186" style="edgeStyle=orthogonalEdgeStyle;rounded=0;orthogonalLoop=1;jettySize=auto;html=1;entryX=0.5;entryY=1;entryDx=0;entryDy=0;exitX=0.5;exitY=1;exitDx=0;exitDy=0;" edge="1" parent="1">
          <mxGeometry relative="1" as="geometry">
            <mxPoint x="795" y="2140" as="sourcePoint" />
            <mxPoint x="550" y="2350" as="targetPoint" />
            <Array as="points">
              <mxPoint x="795" y="2200" />
              <mxPoint x="755" y="2200" />
              <mxPoint x="755" y="2370" />
              <mxPoint x="550" y="2370" />
            </Array>
          </mxGeometry>
        </mxCell>
        <mxCell id="j1YCcE-Wg3AFej6a7hgM-184" value="can borrow" style="shape=rhombus;double=1;perimeter=rhombusPerimeter;whiteSpace=wrap;html=1;align=center;" vertex="1" parent="1">
          <mxGeometry x="730" y="2080" width="120" height="60" as="geometry" />
        </mxCell>
        <mxCell id="j1YCcE-Wg3AFej6a7hgM-190" style="edgeStyle=orthogonalEdgeStyle;rounded=0;orthogonalLoop=1;jettySize=auto;html=1;entryX=0.5;entryY=1;entryDx=0;entryDy=0;" edge="1" parent="1" source="j1YCcE-Wg3AFej6a7hgM-187" target="j1YCcE-Wg3AFej6a7hgM-110">
          <mxGeometry relative="1" as="geometry" />
        </mxCell>
        <mxCell id="j1YCcE-Wg3AFej6a7hgM-219" style="edgeStyle=orthogonalEdgeStyle;rounded=0;orthogonalLoop=1;jettySize=auto;html=1;entryX=0.25;entryY=1;entryDx=0;entryDy=0;" edge="1" parent="1" source="j1YCcE-Wg3AFej6a7hgM-187" target="j1YCcE-Wg3AFej6a7hgM-110">
          <mxGeometry relative="1" as="geometry">
            <Array as="points">
              <mxPoint x="-15" y="2450" />
            </Array>
          </mxGeometry>
        </mxCell>
        <mxCell id="j1YCcE-Wg3AFej6a7hgM-187" value="is" style="shape=rhombus;double=1;perimeter=rhombusPerimeter;whiteSpace=wrap;html=1;align=center;" vertex="1" parent="1">
          <mxGeometry x="238" y="2400" width="120" height="60" as="geometry" />
        </mxCell>
        <mxCell id="j1YCcE-Wg3AFej6a7hgM-188" style="edgeStyle=orthogonalEdgeStyle;rounded=0;orthogonalLoop=1;jettySize=auto;html=1;entryX=1;entryY=0.5;entryDx=0;entryDy=0;" edge="1" parent="1" source="j1YCcE-Wg3AFej6a7hgM-182" target="j1YCcE-Wg3AFej6a7hgM-187">
          <mxGeometry relative="1" as="geometry">
            <Array as="points">
              <mxPoint x="545" y="2430" />
            </Array>
          </mxGeometry>
        </mxCell>
        <mxCell id="j1YCcE-Wg3AFej6a7hgM-191" value="" style="group" vertex="1" connectable="0" parent="1">
          <mxGeometry x="-59.5" y="1910" width="297.5" height="110" as="geometry" />
        </mxCell>
        <mxCell id="j1YCcE-Wg3AFej6a7hgM-143" style="edgeStyle=orthogonalEdgeStyle;rounded=0;orthogonalLoop=1;jettySize=auto;html=1;entryX=0.5;entryY=1;entryDx=0;entryDy=0;" edge="1" parent="j1YCcE-Wg3AFej6a7hgM-191" source="j1YCcE-Wg3AFej6a7hgM-112" target="j1YCcE-Wg3AFej6a7hgM-140">
          <mxGeometry relative="1" as="geometry" />
        </mxCell>
        <mxCell id="j1YCcE-Wg3AFej6a7hgM-144" style="edgeStyle=orthogonalEdgeStyle;rounded=0;orthogonalLoop=1;jettySize=auto;html=1;" edge="1" parent="j1YCcE-Wg3AFej6a7hgM-191" source="j1YCcE-Wg3AFej6a7hgM-112">
          <mxGeometry relative="1" as="geometry">
            <mxPoint x="250.00000000000023" y="40" as="targetPoint" />
          </mxGeometry>
        </mxCell>
        <mxCell id="j1YCcE-Wg3AFej6a7hgM-112" value="Member" style="whiteSpace=wrap;html=1;align=center;" vertex="1" parent="j1YCcE-Wg3AFej6a7hgM-191">
          <mxGeometry x="70" y="70" width="100" height="40" as="geometry" />
        </mxCell>
        <mxCell id="j1YCcE-Wg3AFej6a7hgM-139" value="id" style="ellipse;whiteSpace=wrap;html=1;align=center;" vertex="1" parent="j1YCcE-Wg3AFej6a7hgM-191">
          <mxGeometry width="100" height="40" as="geometry" />
        </mxCell>
        <mxCell id="j1YCcE-Wg3AFej6a7hgM-140" value="name" style="ellipse;whiteSpace=wrap;html=1;align=center;" vertex="1" parent="j1YCcE-Wg3AFej6a7hgM-191">
          <mxGeometry x="100" width="100" height="40" as="geometry" />
        </mxCell>
        <mxCell id="j1YCcE-Wg3AFej6a7hgM-142" style="edgeStyle=orthogonalEdgeStyle;rounded=0;orthogonalLoop=1;jettySize=auto;html=1;entryX=0.36;entryY=0.96;entryDx=0;entryDy=0;entryPerimeter=0;" edge="1" parent="j1YCcE-Wg3AFej6a7hgM-191" source="j1YCcE-Wg3AFej6a7hgM-112" target="j1YCcE-Wg3AFej6a7hgM-139">
          <mxGeometry relative="1" as="geometry">
            <Array as="points">
              <mxPoint x="60" y="90" />
              <mxPoint x="60" y="50" />
              <mxPoint x="50" y="50" />
              <mxPoint x="50" y="60" />
              <mxPoint x="36" y="60" />
            </Array>
          </mxGeometry>
        </mxCell>
        <mxCell id="j1YCcE-Wg3AFej6a7hgM-169" value="phone" style="ellipse;whiteSpace=wrap;html=1;align=center;dashed=1;" vertex="1" parent="j1YCcE-Wg3AFej6a7hgM-191">
          <mxGeometry x="197.5" width="100" height="40" as="geometry" />
        </mxCell>
        <mxCell id="j1YCcE-Wg3AFej6a7hgM-192" value="" style="group" vertex="1" connectable="0" parent="1">
          <mxGeometry x="67.5" y="1610" width="240" height="110" as="geometry" />
        </mxCell>
        <mxCell id="j1YCcE-Wg3AFej6a7hgM-148" style="edgeStyle=orthogonalEdgeStyle;rounded=0;orthogonalLoop=1;jettySize=auto;html=1;" edge="1" parent="j1YCcE-Wg3AFej6a7hgM-192" target="j1YCcE-Wg3AFej6a7hgM-146">
          <mxGeometry relative="1" as="geometry">
            <mxPoint x="130.02941176470586" y="70" as="sourcePoint" />
          </mxGeometry>
        </mxCell>
        <mxCell id="j1YCcE-Wg3AFej6a7hgM-145" value="id" style="ellipse;whiteSpace=wrap;html=1;align=center;" vertex="1" parent="j1YCcE-Wg3AFej6a7hgM-192">
          <mxGeometry width="100" height="40" as="geometry" />
        </mxCell>
        <mxCell id="j1YCcE-Wg3AFej6a7hgM-146" value="Fine_amount" style="ellipse;whiteSpace=wrap;html=1;align=center;" vertex="1" parent="j1YCcE-Wg3AFej6a7hgM-192">
          <mxGeometry x="140" width="100" height="40" as="geometry" />
        </mxCell>
        <mxCell id="j1YCcE-Wg3AFej6a7hgM-147" style="edgeStyle=orthogonalEdgeStyle;rounded=0;orthogonalLoop=1;jettySize=auto;html=1;entryX=0.421;entryY=1.009;entryDx=0;entryDy=0;entryPerimeter=0;" edge="1" parent="j1YCcE-Wg3AFej6a7hgM-192" target="j1YCcE-Wg3AFej6a7hgM-145">
          <mxGeometry relative="1" as="geometry">
            <mxPoint x="130.02941176470586" y="70" as="sourcePoint" />
          </mxGeometry>
        </mxCell>
        <mxCell id="j1YCcE-Wg3AFej6a7hgM-193" value="Borrow_fine" style="shape=ext;margin=3;double=1;whiteSpace=wrap;html=1;align=center;" vertex="1" parent="j1YCcE-Wg3AFej6a7hgM-192">
          <mxGeometry x="70" y="70" width="100" height="40" as="geometry" />
        </mxCell>
        <mxCell id="j1YCcE-Wg3AFej6a7hgM-196" style="edgeStyle=orthogonalEdgeStyle;rounded=0;orthogonalLoop=1;jettySize=auto;html=1;entryX=0.5;entryY=1;entryDx=0;entryDy=0;" edge="1" parent="1" source="j1YCcE-Wg3AFej6a7hgM-194" target="j1YCcE-Wg3AFej6a7hgM-193">
          <mxGeometry relative="1" as="geometry" />
        </mxCell>
        <mxCell id="j1YCcE-Wg3AFej6a7hgM-194" value="Has" style="shape=rhombus;double=1;perimeter=rhombusPerimeter;whiteSpace=wrap;html=1;align=center;" vertex="1" parent="1">
          <mxGeometry x="127.5" y="1780" width="120" height="60" as="geometry" />
        </mxCell>
        <mxCell id="j1YCcE-Wg3AFej6a7hgM-201" style="edgeStyle=orthogonalEdgeStyle;rounded=0;orthogonalLoop=1;jettySize=auto;html=1;entryX=0.5;entryY=1;entryDx=0;entryDy=0;" edge="1" parent="1" source="j1YCcE-Wg3AFej6a7hgM-112" target="j1YCcE-Wg3AFej6a7hgM-194">
          <mxGeometry relative="1" as="geometry">
            <Array as="points">
              <mxPoint x="-140" y="2010" />
              <mxPoint x="-140" y="1870" />
              <mxPoint x="188" y="1870" />
            </Array>
          </mxGeometry>
        </mxCell>
        <mxCell id="j1YCcE-Wg3AFej6a7hgM-202" style="edgeStyle=orthogonalEdgeStyle;rounded=0;orthogonalLoop=1;jettySize=auto;html=1;entryX=1;entryY=0.5;entryDx=0;entryDy=0;" edge="1" parent="1" source="j1YCcE-Wg3AFej6a7hgM-170" target="j1YCcE-Wg3AFej6a7hgM-194">
          <mxGeometry relative="1" as="geometry">
            <Array as="points">
              <mxPoint x="550" y="1880" />
              <mxPoint x="389" y="1880" />
              <mxPoint x="389" y="1810" />
            </Array>
          </mxGeometry>
        </mxCell>
        <mxCell id="j1YCcE-Wg3AFej6a7hgM-205" value="M" style="text;html=1;align=center;verticalAlign=middle;resizable=0;points=[];autosize=1;strokeColor=none;fillColor=none;" vertex="1" parent="1">
          <mxGeometry x="585" y="1860" width="30" height="30" as="geometry" />
        </mxCell>
        <mxCell id="j1YCcE-Wg3AFej6a7hgM-206" value="M" style="text;html=1;align=center;verticalAlign=middle;resizable=0;points=[];autosize=1;strokeColor=none;fillColor=none;" vertex="1" parent="1">
          <mxGeometry x="60" y="2010" width="30" height="30" as="geometry" />
        </mxCell>
        <mxCell id="j1YCcE-Wg3AFej6a7hgM-207" value="M" style="text;html=1;align=center;verticalAlign=middle;resizable=0;points=[];autosize=1;strokeColor=none;fillColor=none;" vertex="1" parent="1">
          <mxGeometry x="555" y="2348" width="30" height="30" as="geometry" />
        </mxCell>
        <mxCell id="j1YCcE-Wg3AFej6a7hgM-210" value="1" style="text;html=1;align=center;verticalAlign=middle;resizable=0;points=[];autosize=1;strokeColor=none;fillColor=none;" vertex="1" parent="1">
          <mxGeometry x="15" y="2358" width="30" height="30" as="geometry" />
        </mxCell>
        <mxCell id="j1YCcE-Wg3AFej6a7hgM-211" value="M" style="text;html=1;align=center;verticalAlign=middle;resizable=0;points=[];autosize=1;strokeColor=none;fillColor=none;" vertex="1" parent="1">
          <mxGeometry x="515" y="2348" width="30" height="30" as="geometry" />
        </mxCell>
        <mxCell id="j1YCcE-Wg3AFej6a7hgM-212" value="M" style="text;html=1;align=center;verticalAlign=middle;resizable=0;points=[];autosize=1;strokeColor=none;fillColor=none;" vertex="1" parent="1">
          <mxGeometry x="185" y="1718" width="30" height="30" as="geometry" />
        </mxCell>
        <mxCell id="j1YCcE-Wg3AFej6a7hgM-213" value="1" style="text;html=1;align=center;verticalAlign=middle;resizable=0;points=[];autosize=1;strokeColor=none;fillColor=none;" vertex="1" parent="1">
          <mxGeometry x="515" y="1858" width="30" height="30" as="geometry" />
        </mxCell>
        <mxCell id="j1YCcE-Wg3AFej6a7hgM-214" value="M" style="text;html=1;align=center;verticalAlign=middle;resizable=0;points=[];autosize=1;strokeColor=none;fillColor=none;" vertex="1" parent="1">
          <mxGeometry x="155" y="1718" width="30" height="30" as="geometry" />
        </mxCell>
        <mxCell id="j1YCcE-Wg3AFej6a7hgM-215" value="1" style="text;html=1;align=center;verticalAlign=middle;resizable=0;points=[];autosize=1;strokeColor=none;fillColor=none;" vertex="1" parent="1">
          <mxGeometry x="-15" y="2000" width="30" height="30" as="geometry" />
        </mxCell>
        <mxCell id="j1YCcE-Wg3AFej6a7hgM-217" style="edgeStyle=orthogonalEdgeStyle;rounded=0;orthogonalLoop=1;jettySize=auto;html=1;entryX=0.389;entryY=0.98;entryDx=0;entryDy=0;entryPerimeter=0;" edge="1" parent="1" source="j1YCcE-Wg3AFej6a7hgM-179" target="j1YCcE-Wg3AFej6a7hgM-170">
          <mxGeometry relative="1" as="geometry">
            <Array as="points">
              <mxPoint x="569" y="2090" />
            </Array>
          </mxGeometry>
        </mxCell>
        <mxCell id="j1YCcE-Wg3AFej6a7hgM-263" value="Member" style="shape=table;startSize=30;container=1;collapsible=1;childLayout=tableLayout;fixedRows=1;rowLines=0;fontStyle=1;align=center;resizeLast=1;html=1;" vertex="1" parent="1">
          <mxGeometry x="1110" y="1660" width="180" height="120" as="geometry" />
        </mxCell>
        <mxCell id="j1YCcE-Wg3AFej6a7hgM-264" value="" style="shape=tableRow;horizontal=0;startSize=0;swimlaneHead=0;swimlaneBody=0;fillColor=none;collapsible=0;dropTarget=0;points=[[0,0.5],[1,0.5]];portConstraint=eastwest;top=0;left=0;right=0;bottom=1;" vertex="1" parent="j1YCcE-Wg3AFej6a7hgM-263">
          <mxGeometry y="30" width="180" height="30" as="geometry" />
        </mxCell>
        <mxCell id="j1YCcE-Wg3AFej6a7hgM-265" value="PK" style="shape=partialRectangle;connectable=0;fillColor=none;top=0;left=0;bottom=0;right=0;fontStyle=1;overflow=hidden;whiteSpace=wrap;html=1;" vertex="1" parent="j1YCcE-Wg3AFej6a7hgM-264">
          <mxGeometry width="30" height="30" as="geometry">
            <mxRectangle width="30" height="30" as="alternateBounds" />
          </mxGeometry>
        </mxCell>
        <mxCell id="j1YCcE-Wg3AFej6a7hgM-266" value="ID" style="shape=partialRectangle;connectable=0;fillColor=none;top=0;left=0;bottom=0;right=0;align=left;spacingLeft=6;fontStyle=5;overflow=hidden;whiteSpace=wrap;html=1;" vertex="1" parent="j1YCcE-Wg3AFej6a7hgM-264">
          <mxGeometry x="30" width="150" height="30" as="geometry">
            <mxRectangle width="150" height="30" as="alternateBounds" />
          </mxGeometry>
        </mxCell>
        <mxCell id="j1YCcE-Wg3AFej6a7hgM-267" value="" style="shape=tableRow;horizontal=0;startSize=0;swimlaneHead=0;swimlaneBody=0;fillColor=none;collapsible=0;dropTarget=0;points=[[0,0.5],[1,0.5]];portConstraint=eastwest;top=0;left=0;right=0;bottom=0;" vertex="1" parent="j1YCcE-Wg3AFej6a7hgM-263">
          <mxGeometry y="60" width="180" height="30" as="geometry" />
        </mxCell>
        <mxCell id="j1YCcE-Wg3AFej6a7hgM-268" value="" style="shape=partialRectangle;connectable=0;fillColor=none;top=0;left=0;bottom=0;right=0;editable=1;overflow=hidden;whiteSpace=wrap;html=1;" vertex="1" parent="j1YCcE-Wg3AFej6a7hgM-267">
          <mxGeometry width="30" height="30" as="geometry">
            <mxRectangle width="30" height="30" as="alternateBounds" />
          </mxGeometry>
        </mxCell>
        <mxCell id="j1YCcE-Wg3AFej6a7hgM-269" value="name" style="shape=partialRectangle;connectable=0;fillColor=none;top=0;left=0;bottom=0;right=0;align=left;spacingLeft=6;overflow=hidden;whiteSpace=wrap;html=1;" vertex="1" parent="j1YCcE-Wg3AFej6a7hgM-267">
          <mxGeometry x="30" width="150" height="30" as="geometry">
            <mxRectangle width="150" height="30" as="alternateBounds" />
          </mxGeometry>
        </mxCell>
        <mxCell id="j1YCcE-Wg3AFej6a7hgM-270" value="" style="shape=tableRow;horizontal=0;startSize=0;swimlaneHead=0;swimlaneBody=0;fillColor=none;collapsible=0;dropTarget=0;points=[[0,0.5],[1,0.5]];portConstraint=eastwest;top=0;left=0;right=0;bottom=0;" vertex="1" parent="j1YCcE-Wg3AFej6a7hgM-263">
          <mxGeometry y="90" width="180" height="30" as="geometry" />
        </mxCell>
        <mxCell id="j1YCcE-Wg3AFej6a7hgM-271" value="" style="shape=partialRectangle;connectable=0;fillColor=none;top=0;left=0;bottom=0;right=0;editable=1;overflow=hidden;whiteSpace=wrap;html=1;" vertex="1" parent="j1YCcE-Wg3AFej6a7hgM-270">
          <mxGeometry width="30" height="30" as="geometry">
            <mxRectangle width="30" height="30" as="alternateBounds" />
          </mxGeometry>
        </mxCell>
        <mxCell id="j1YCcE-Wg3AFej6a7hgM-272" value="Phone" style="shape=partialRectangle;connectable=0;fillColor=none;top=0;left=0;bottom=0;right=0;align=left;spacingLeft=6;overflow=hidden;whiteSpace=wrap;html=1;" vertex="1" parent="j1YCcE-Wg3AFej6a7hgM-270">
          <mxGeometry x="30" width="150" height="30" as="geometry">
            <mxRectangle width="150" height="30" as="alternateBounds" />
          </mxGeometry>
        </mxCell>
        <mxCell id="j1YCcE-Wg3AFej6a7hgM-276" value="Author" style="shape=table;startSize=30;container=1;collapsible=1;childLayout=tableLayout;fixedRows=1;rowLines=0;fontStyle=1;align=center;resizeLast=1;html=1;" vertex="1" parent="1">
          <mxGeometry x="1370" y="1660" width="180" height="120" as="geometry" />
        </mxCell>
        <mxCell id="j1YCcE-Wg3AFej6a7hgM-277" value="" style="shape=tableRow;horizontal=0;startSize=0;swimlaneHead=0;swimlaneBody=0;fillColor=none;collapsible=0;dropTarget=0;points=[[0,0.5],[1,0.5]];portConstraint=eastwest;top=0;left=0;right=0;bottom=1;" vertex="1" parent="j1YCcE-Wg3AFej6a7hgM-276">
          <mxGeometry y="30" width="180" height="30" as="geometry" />
        </mxCell>
        <mxCell id="j1YCcE-Wg3AFej6a7hgM-278" value="PK" style="shape=partialRectangle;connectable=0;fillColor=none;top=0;left=0;bottom=0;right=0;fontStyle=1;overflow=hidden;whiteSpace=wrap;html=1;" vertex="1" parent="j1YCcE-Wg3AFej6a7hgM-277">
          <mxGeometry width="30" height="30" as="geometry">
            <mxRectangle width="30" height="30" as="alternateBounds" />
          </mxGeometry>
        </mxCell>
        <mxCell id="j1YCcE-Wg3AFej6a7hgM-279" value="ID" style="shape=partialRectangle;connectable=0;fillColor=none;top=0;left=0;bottom=0;right=0;align=left;spacingLeft=6;fontStyle=5;overflow=hidden;whiteSpace=wrap;html=1;" vertex="1" parent="j1YCcE-Wg3AFej6a7hgM-277">
          <mxGeometry x="30" width="150" height="30" as="geometry">
            <mxRectangle width="150" height="30" as="alternateBounds" />
          </mxGeometry>
        </mxCell>
        <mxCell id="j1YCcE-Wg3AFej6a7hgM-280" value="" style="shape=tableRow;horizontal=0;startSize=0;swimlaneHead=0;swimlaneBody=0;fillColor=none;collapsible=0;dropTarget=0;points=[[0,0.5],[1,0.5]];portConstraint=eastwest;top=0;left=0;right=0;bottom=0;" vertex="1" parent="j1YCcE-Wg3AFej6a7hgM-276">
          <mxGeometry y="60" width="180" height="30" as="geometry" />
        </mxCell>
        <mxCell id="j1YCcE-Wg3AFej6a7hgM-281" value="" style="shape=partialRectangle;connectable=0;fillColor=none;top=0;left=0;bottom=0;right=0;editable=1;overflow=hidden;whiteSpace=wrap;html=1;" vertex="1" parent="j1YCcE-Wg3AFej6a7hgM-280">
          <mxGeometry width="30" height="30" as="geometry">
            <mxRectangle width="30" height="30" as="alternateBounds" />
          </mxGeometry>
        </mxCell>
        <mxCell id="j1YCcE-Wg3AFej6a7hgM-282" value="name" style="shape=partialRectangle;connectable=0;fillColor=none;top=0;left=0;bottom=0;right=0;align=left;spacingLeft=6;overflow=hidden;whiteSpace=wrap;html=1;" vertex="1" parent="j1YCcE-Wg3AFej6a7hgM-280">
          <mxGeometry x="30" width="150" height="30" as="geometry">
            <mxRectangle width="150" height="30" as="alternateBounds" />
          </mxGeometry>
        </mxCell>
        <mxCell id="j1YCcE-Wg3AFej6a7hgM-283" value="" style="shape=tableRow;horizontal=0;startSize=0;swimlaneHead=0;swimlaneBody=0;fillColor=none;collapsible=0;dropTarget=0;points=[[0,0.5],[1,0.5]];portConstraint=eastwest;top=0;left=0;right=0;bottom=0;" vertex="1" parent="j1YCcE-Wg3AFej6a7hgM-276">
          <mxGeometry y="90" width="180" height="30" as="geometry" />
        </mxCell>
        <mxCell id="j1YCcE-Wg3AFej6a7hgM-284" value="" style="shape=partialRectangle;connectable=0;fillColor=none;top=0;left=0;bottom=0;right=0;editable=1;overflow=hidden;whiteSpace=wrap;html=1;" vertex="1" parent="j1YCcE-Wg3AFej6a7hgM-283">
          <mxGeometry width="30" height="30" as="geometry">
            <mxRectangle width="30" height="30" as="alternateBounds" />
          </mxGeometry>
        </mxCell>
        <mxCell id="j1YCcE-Wg3AFej6a7hgM-285" value="Nationality" style="shape=partialRectangle;connectable=0;fillColor=none;top=0;left=0;bottom=0;right=0;align=left;spacingLeft=6;overflow=hidden;whiteSpace=wrap;html=1;" vertex="1" parent="j1YCcE-Wg3AFej6a7hgM-283">
          <mxGeometry x="30" width="150" height="30" as="geometry">
            <mxRectangle width="150" height="30" as="alternateBounds" />
          </mxGeometry>
        </mxCell>
        <mxCell id="j1YCcE-Wg3AFej6a7hgM-286" value="Borrow" style="shape=table;startSize=30;container=1;collapsible=1;childLayout=tableLayout;fixedRows=1;rowLines=0;fontStyle=1;align=center;resizeLast=1;html=1;" vertex="1" parent="1">
          <mxGeometry x="1400" y="1870" width="180" height="150" as="geometry" />
        </mxCell>
        <mxCell id="j1YCcE-Wg3AFej6a7hgM-287" value="" style="shape=tableRow;horizontal=0;startSize=0;swimlaneHead=0;swimlaneBody=0;fillColor=none;collapsible=0;dropTarget=0;points=[[0,0.5],[1,0.5]];portConstraint=eastwest;top=0;left=0;right=0;bottom=1;" vertex="1" parent="j1YCcE-Wg3AFej6a7hgM-286">
          <mxGeometry y="30" width="180" height="30" as="geometry" />
        </mxCell>
        <mxCell id="j1YCcE-Wg3AFej6a7hgM-288" value="PK" style="shape=partialRectangle;connectable=0;fillColor=none;top=0;left=0;bottom=0;right=0;fontStyle=1;overflow=hidden;whiteSpace=wrap;html=1;" vertex="1" parent="j1YCcE-Wg3AFej6a7hgM-287">
          <mxGeometry width="30" height="30" as="geometry">
            <mxRectangle width="30" height="30" as="alternateBounds" />
          </mxGeometry>
        </mxCell>
        <mxCell id="j1YCcE-Wg3AFej6a7hgM-289" value="ID" style="shape=partialRectangle;connectable=0;fillColor=none;top=0;left=0;bottom=0;right=0;align=left;spacingLeft=6;fontStyle=5;overflow=hidden;whiteSpace=wrap;html=1;" vertex="1" parent="j1YCcE-Wg3AFej6a7hgM-287">
          <mxGeometry x="30" width="150" height="30" as="geometry">
            <mxRectangle width="150" height="30" as="alternateBounds" />
          </mxGeometry>
        </mxCell>
        <mxCell id="j1YCcE-Wg3AFej6a7hgM-290" value="" style="shape=tableRow;horizontal=0;startSize=0;swimlaneHead=0;swimlaneBody=0;fillColor=none;collapsible=0;dropTarget=0;points=[[0,0.5],[1,0.5]];portConstraint=eastwest;top=0;left=0;right=0;bottom=0;" vertex="1" parent="j1YCcE-Wg3AFej6a7hgM-286">
          <mxGeometry y="60" width="180" height="30" as="geometry" />
        </mxCell>
        <mxCell id="j1YCcE-Wg3AFej6a7hgM-291" value="" style="shape=partialRectangle;connectable=0;fillColor=none;top=0;left=0;bottom=0;right=0;editable=1;overflow=hidden;whiteSpace=wrap;html=1;" vertex="1" parent="j1YCcE-Wg3AFej6a7hgM-290">
          <mxGeometry width="30" height="30" as="geometry">
            <mxRectangle width="30" height="30" as="alternateBounds" />
          </mxGeometry>
        </mxCell>
        <mxCell id="j1YCcE-Wg3AFej6a7hgM-292" value="Return_Date" style="shape=partialRectangle;connectable=0;fillColor=none;top=0;left=0;bottom=0;right=0;align=left;spacingLeft=6;overflow=hidden;whiteSpace=wrap;html=1;" vertex="1" parent="j1YCcE-Wg3AFej6a7hgM-290">
          <mxGeometry x="30" width="150" height="30" as="geometry">
            <mxRectangle width="150" height="30" as="alternateBounds" />
          </mxGeometry>
        </mxCell>
        <mxCell id="j1YCcE-Wg3AFej6a7hgM-293" value="" style="shape=tableRow;horizontal=0;startSize=0;swimlaneHead=0;swimlaneBody=0;fillColor=none;collapsible=0;dropTarget=0;points=[[0,0.5],[1,0.5]];portConstraint=eastwest;top=0;left=0;right=0;bottom=0;" vertex="1" parent="j1YCcE-Wg3AFej6a7hgM-286">
          <mxGeometry y="90" width="180" height="30" as="geometry" />
        </mxCell>
        <mxCell id="j1YCcE-Wg3AFej6a7hgM-294" value="" style="shape=partialRectangle;connectable=0;fillColor=none;top=0;left=0;bottom=0;right=0;editable=1;overflow=hidden;whiteSpace=wrap;html=1;" vertex="1" parent="j1YCcE-Wg3AFej6a7hgM-293">
          <mxGeometry width="30" height="30" as="geometry">
            <mxRectangle width="30" height="30" as="alternateBounds" />
          </mxGeometry>
        </mxCell>
        <mxCell id="j1YCcE-Wg3AFej6a7hgM-295" value="Borrow_Date" style="shape=partialRectangle;connectable=0;fillColor=none;top=0;left=0;bottom=0;right=0;align=left;spacingLeft=6;overflow=hidden;whiteSpace=wrap;html=1;" vertex="1" parent="j1YCcE-Wg3AFej6a7hgM-293">
          <mxGeometry x="30" width="150" height="30" as="geometry">
            <mxRectangle width="150" height="30" as="alternateBounds" />
          </mxGeometry>
        </mxCell>
        <mxCell id="j1YCcE-Wg3AFej6a7hgM-296" style="shape=tableRow;horizontal=0;startSize=0;swimlaneHead=0;swimlaneBody=0;fillColor=none;collapsible=0;dropTarget=0;points=[[0,0.5],[1,0.5]];portConstraint=eastwest;top=0;left=0;right=0;bottom=0;" vertex="1" parent="j1YCcE-Wg3AFej6a7hgM-286">
          <mxGeometry y="120" width="180" height="30" as="geometry" />
        </mxCell>
        <mxCell id="j1YCcE-Wg3AFej6a7hgM-297" value="FK" style="shape=partialRectangle;connectable=0;fillColor=none;top=0;left=0;bottom=0;right=0;editable=1;overflow=hidden;whiteSpace=wrap;html=1;" vertex="1" parent="j1YCcE-Wg3AFej6a7hgM-296">
          <mxGeometry width="30" height="30" as="geometry">
            <mxRectangle width="30" height="30" as="alternateBounds" />
          </mxGeometry>
        </mxCell>
        <mxCell id="j1YCcE-Wg3AFej6a7hgM-298" value="Member_id" style="shape=partialRectangle;connectable=0;fillColor=none;top=0;left=0;bottom=0;right=0;align=left;spacingLeft=6;overflow=hidden;whiteSpace=wrap;html=1;" vertex="1" parent="j1YCcE-Wg3AFej6a7hgM-296">
          <mxGeometry x="30" width="150" height="30" as="geometry">
            <mxRectangle width="150" height="30" as="alternateBounds" />
          </mxGeometry>
        </mxCell>
        <mxCell id="j1YCcE-Wg3AFej6a7hgM-299" value="Book" style="shape=table;startSize=30;container=1;collapsible=1;childLayout=tableLayout;fixedRows=1;rowLines=0;fontStyle=1;align=center;resizeLast=1;html=1;" vertex="1" parent="1">
          <mxGeometry x="1110" y="1880" width="180" height="150" as="geometry" />
        </mxCell>
        <mxCell id="j1YCcE-Wg3AFej6a7hgM-300" value="" style="shape=tableRow;horizontal=0;startSize=0;swimlaneHead=0;swimlaneBody=0;fillColor=none;collapsible=0;dropTarget=0;points=[[0,0.5],[1,0.5]];portConstraint=eastwest;top=0;left=0;right=0;bottom=1;" vertex="1" parent="j1YCcE-Wg3AFej6a7hgM-299">
          <mxGeometry y="30" width="180" height="30" as="geometry" />
        </mxCell>
        <mxCell id="j1YCcE-Wg3AFej6a7hgM-301" value="PK" style="shape=partialRectangle;connectable=0;fillColor=none;top=0;left=0;bottom=0;right=0;fontStyle=1;overflow=hidden;whiteSpace=wrap;html=1;" vertex="1" parent="j1YCcE-Wg3AFej6a7hgM-300">
          <mxGeometry width="30" height="30" as="geometry">
            <mxRectangle width="30" height="30" as="alternateBounds" />
          </mxGeometry>
        </mxCell>
        <mxCell id="j1YCcE-Wg3AFej6a7hgM-302" value="ID" style="shape=partialRectangle;connectable=0;fillColor=none;top=0;left=0;bottom=0;right=0;align=left;spacingLeft=6;fontStyle=5;overflow=hidden;whiteSpace=wrap;html=1;" vertex="1" parent="j1YCcE-Wg3AFej6a7hgM-300">
          <mxGeometry x="30" width="150" height="30" as="geometry">
            <mxRectangle width="150" height="30" as="alternateBounds" />
          </mxGeometry>
        </mxCell>
        <mxCell id="j1YCcE-Wg3AFej6a7hgM-303" value="" style="shape=tableRow;horizontal=0;startSize=0;swimlaneHead=0;swimlaneBody=0;fillColor=none;collapsible=0;dropTarget=0;points=[[0,0.5],[1,0.5]];portConstraint=eastwest;top=0;left=0;right=0;bottom=0;" vertex="1" parent="j1YCcE-Wg3AFej6a7hgM-299">
          <mxGeometry y="60" width="180" height="30" as="geometry" />
        </mxCell>
        <mxCell id="j1YCcE-Wg3AFej6a7hgM-304" value="" style="shape=partialRectangle;connectable=0;fillColor=none;top=0;left=0;bottom=0;right=0;editable=1;overflow=hidden;whiteSpace=wrap;html=1;" vertex="1" parent="j1YCcE-Wg3AFej6a7hgM-303">
          <mxGeometry width="30" height="30" as="geometry">
            <mxRectangle width="30" height="30" as="alternateBounds" />
          </mxGeometry>
        </mxCell>
        <mxCell id="j1YCcE-Wg3AFej6a7hgM-305" value="name" style="shape=partialRectangle;connectable=0;fillColor=none;top=0;left=0;bottom=0;right=0;align=left;spacingLeft=6;overflow=hidden;whiteSpace=wrap;html=1;" vertex="1" parent="j1YCcE-Wg3AFej6a7hgM-303">
          <mxGeometry x="30" width="150" height="30" as="geometry">
            <mxRectangle width="150" height="30" as="alternateBounds" />
          </mxGeometry>
        </mxCell>
        <mxCell id="j1YCcE-Wg3AFej6a7hgM-306" value="" style="shape=tableRow;horizontal=0;startSize=0;swimlaneHead=0;swimlaneBody=0;fillColor=none;collapsible=0;dropTarget=0;points=[[0,0.5],[1,0.5]];portConstraint=eastwest;top=0;left=0;right=0;bottom=0;" vertex="1" parent="j1YCcE-Wg3AFej6a7hgM-299">
          <mxGeometry y="90" width="180" height="30" as="geometry" />
        </mxCell>
        <mxCell id="j1YCcE-Wg3AFej6a7hgM-307" value="FK" style="shape=partialRectangle;connectable=0;fillColor=none;top=0;left=0;bottom=0;right=0;editable=1;overflow=hidden;whiteSpace=wrap;html=1;" vertex="1" parent="j1YCcE-Wg3AFej6a7hgM-306">
          <mxGeometry width="30" height="30" as="geometry">
            <mxRectangle width="30" height="30" as="alternateBounds" />
          </mxGeometry>
        </mxCell>
        <mxCell id="j1YCcE-Wg3AFej6a7hgM-308" value="Author_id" style="shape=partialRectangle;connectable=0;fillColor=none;top=0;left=0;bottom=0;right=0;align=left;spacingLeft=6;overflow=hidden;whiteSpace=wrap;html=1;" vertex="1" parent="j1YCcE-Wg3AFej6a7hgM-306">
          <mxGeometry x="30" width="150" height="30" as="geometry">
            <mxRectangle width="150" height="30" as="alternateBounds" />
          </mxGeometry>
        </mxCell>
        <mxCell id="j1YCcE-Wg3AFej6a7hgM-336" style="shape=tableRow;horizontal=0;startSize=0;swimlaneHead=0;swimlaneBody=0;fillColor=none;collapsible=0;dropTarget=0;points=[[0,0.5],[1,0.5]];portConstraint=eastwest;top=0;left=0;right=0;bottom=0;" vertex="1" parent="j1YCcE-Wg3AFej6a7hgM-299">
          <mxGeometry y="120" width="180" height="30" as="geometry" />
        </mxCell>
        <mxCell id="j1YCcE-Wg3AFej6a7hgM-337" value="FK" style="shape=partialRectangle;connectable=0;fillColor=none;top=0;left=0;bottom=0;right=0;editable=1;overflow=hidden;whiteSpace=wrap;html=1;" vertex="1" parent="j1YCcE-Wg3AFej6a7hgM-336">
          <mxGeometry width="30" height="30" as="geometry">
            <mxRectangle width="30" height="30" as="alternateBounds" />
          </mxGeometry>
        </mxCell>
        <mxCell id="j1YCcE-Wg3AFej6a7hgM-338" value="Borrow_ID" style="shape=partialRectangle;connectable=0;fillColor=none;top=0;left=0;bottom=0;right=0;align=left;spacingLeft=6;overflow=hidden;whiteSpace=wrap;html=1;" vertex="1" parent="j1YCcE-Wg3AFej6a7hgM-336">
          <mxGeometry x="30" width="150" height="30" as="geometry">
            <mxRectangle width="150" height="30" as="alternateBounds" />
          </mxGeometry>
        </mxCell>
        <mxCell id="j1YCcE-Wg3AFej6a7hgM-312" value="Borrow_fine" style="shape=table;startSize=30;container=1;collapsible=1;childLayout=tableLayout;fixedRows=1;rowLines=0;fontStyle=1;align=center;resizeLast=1;html=1;" vertex="1" parent="1">
          <mxGeometry x="1360" y="1440" width="180" height="150" as="geometry" />
        </mxCell>
        <mxCell id="j1YCcE-Wg3AFej6a7hgM-313" value="" style="shape=tableRow;horizontal=0;startSize=0;swimlaneHead=0;swimlaneBody=0;fillColor=none;collapsible=0;dropTarget=0;points=[[0,0.5],[1,0.5]];portConstraint=eastwest;top=0;left=0;right=0;bottom=1;" vertex="1" parent="j1YCcE-Wg3AFej6a7hgM-312">
          <mxGeometry y="30" width="180" height="30" as="geometry" />
        </mxCell>
        <mxCell id="j1YCcE-Wg3AFej6a7hgM-314" value="PK" style="shape=partialRectangle;connectable=0;fillColor=none;top=0;left=0;bottom=0;right=0;fontStyle=1;overflow=hidden;whiteSpace=wrap;html=1;" vertex="1" parent="j1YCcE-Wg3AFej6a7hgM-313">
          <mxGeometry width="30" height="30" as="geometry">
            <mxRectangle width="30" height="30" as="alternateBounds" />
          </mxGeometry>
        </mxCell>
        <mxCell id="j1YCcE-Wg3AFej6a7hgM-315" value="ID" style="shape=partialRectangle;connectable=0;fillColor=none;top=0;left=0;bottom=0;right=0;align=left;spacingLeft=6;fontStyle=5;overflow=hidden;whiteSpace=wrap;html=1;" vertex="1" parent="j1YCcE-Wg3AFej6a7hgM-313">
          <mxGeometry x="30" width="150" height="30" as="geometry">
            <mxRectangle width="150" height="30" as="alternateBounds" />
          </mxGeometry>
        </mxCell>
        <mxCell id="j1YCcE-Wg3AFej6a7hgM-316" value="" style="shape=tableRow;horizontal=0;startSize=0;swimlaneHead=0;swimlaneBody=0;fillColor=none;collapsible=0;dropTarget=0;points=[[0,0.5],[1,0.5]];portConstraint=eastwest;top=0;left=0;right=0;bottom=0;" vertex="1" parent="j1YCcE-Wg3AFej6a7hgM-312">
          <mxGeometry y="60" width="180" height="30" as="geometry" />
        </mxCell>
        <mxCell id="j1YCcE-Wg3AFej6a7hgM-317" value="" style="shape=partialRectangle;connectable=0;fillColor=none;top=0;left=0;bottom=0;right=0;editable=1;overflow=hidden;whiteSpace=wrap;html=1;" vertex="1" parent="j1YCcE-Wg3AFej6a7hgM-316">
          <mxGeometry width="30" height="30" as="geometry">
            <mxRectangle width="30" height="30" as="alternateBounds" />
          </mxGeometry>
        </mxCell>
        <mxCell id="j1YCcE-Wg3AFej6a7hgM-318" value="Fine_amount" style="shape=partialRectangle;connectable=0;fillColor=none;top=0;left=0;bottom=0;right=0;align=left;spacingLeft=6;overflow=hidden;whiteSpace=wrap;html=1;" vertex="1" parent="j1YCcE-Wg3AFej6a7hgM-316">
          <mxGeometry x="30" width="150" height="30" as="geometry">
            <mxRectangle width="150" height="30" as="alternateBounds" />
          </mxGeometry>
        </mxCell>
        <mxCell id="j1YCcE-Wg3AFej6a7hgM-319" value="" style="shape=tableRow;horizontal=0;startSize=0;swimlaneHead=0;swimlaneBody=0;fillColor=none;collapsible=0;dropTarget=0;points=[[0,0.5],[1,0.5]];portConstraint=eastwest;top=0;left=0;right=0;bottom=0;" vertex="1" parent="j1YCcE-Wg3AFej6a7hgM-312">
          <mxGeometry y="90" width="180" height="30" as="geometry" />
        </mxCell>
        <mxCell id="j1YCcE-Wg3AFej6a7hgM-320" value="FK" style="shape=partialRectangle;connectable=0;fillColor=none;top=0;left=0;bottom=0;right=0;editable=1;overflow=hidden;whiteSpace=wrap;html=1;" vertex="1" parent="j1YCcE-Wg3AFej6a7hgM-319">
          <mxGeometry width="30" height="30" as="geometry">
            <mxRectangle width="30" height="30" as="alternateBounds" />
          </mxGeometry>
        </mxCell>
        <mxCell id="j1YCcE-Wg3AFej6a7hgM-321" value="Borrow_id&amp;nbsp;" style="shape=partialRectangle;connectable=0;fillColor=none;top=0;left=0;bottom=0;right=0;align=left;spacingLeft=6;overflow=hidden;whiteSpace=wrap;html=1;" vertex="1" parent="j1YCcE-Wg3AFej6a7hgM-319">
          <mxGeometry x="30" width="150" height="30" as="geometry">
            <mxRectangle width="150" height="30" as="alternateBounds" />
          </mxGeometry>
        </mxCell>
        <mxCell id="j1YCcE-Wg3AFej6a7hgM-322" style="shape=tableRow;horizontal=0;startSize=0;swimlaneHead=0;swimlaneBody=0;fillColor=none;collapsible=0;dropTarget=0;points=[[0,0.5],[1,0.5]];portConstraint=eastwest;top=0;left=0;right=0;bottom=0;" vertex="1" parent="j1YCcE-Wg3AFej6a7hgM-312">
          <mxGeometry y="120" width="180" height="30" as="geometry" />
        </mxCell>
        <mxCell id="j1YCcE-Wg3AFej6a7hgM-323" value="FK" style="shape=partialRectangle;connectable=0;fillColor=none;top=0;left=0;bottom=0;right=0;editable=1;overflow=hidden;whiteSpace=wrap;html=1;" vertex="1" parent="j1YCcE-Wg3AFej6a7hgM-322">
          <mxGeometry width="30" height="30" as="geometry">
            <mxRectangle width="30" height="30" as="alternateBounds" />
          </mxGeometry>
        </mxCell>
        <mxCell id="j1YCcE-Wg3AFej6a7hgM-324" value="Member_id" style="shape=partialRectangle;connectable=0;fillColor=none;top=0;left=0;bottom=0;right=0;align=left;spacingLeft=6;overflow=hidden;whiteSpace=wrap;html=1;" vertex="1" parent="j1YCcE-Wg3AFej6a7hgM-322">
          <mxGeometry x="30" width="150" height="30" as="geometry">
            <mxRectangle width="150" height="30" as="alternateBounds" />
          </mxGeometry>
        </mxCell>
        <mxCell id="j1YCcE-Wg3AFej6a7hgM-220" style="edgeStyle=orthogonalEdgeStyle;rounded=0;orthogonalLoop=1;jettySize=auto;html=1;entryX=0.921;entryY=0.398;entryDx=0;entryDy=0;entryPerimeter=0;" edge="1" parent="1" source="j1YCcE-Wg3AFej6a7hgM-182" target="j1YCcE-Wg3AFej6a7hgM-187">
          <mxGeometry relative="1" as="geometry">
            <mxPoint x="360" y="2430" as="targetPoint" />
            <Array as="points">
              <mxPoint x="540" y="2424" />
            </Array>
          </mxGeometry>
        </mxCell>
        <mxCell id="j1YCcE-Wg3AFej6a7hgM-326" value="Member_Phone" style="shape=table;startSize=30;container=1;collapsible=1;childLayout=tableLayout;fixedRows=1;rowLines=0;fontStyle=1;align=center;resizeLast=1;html=1;" vertex="1" parent="1">
          <mxGeometry x="1095" y="1480" width="180" height="90" as="geometry" />
        </mxCell>
        <mxCell id="j1YCcE-Wg3AFej6a7hgM-327" value="" style="shape=tableRow;horizontal=0;startSize=0;swimlaneHead=0;swimlaneBody=0;fillColor=none;collapsible=0;dropTarget=0;points=[[0,0.5],[1,0.5]];portConstraint=eastwest;top=0;left=0;right=0;bottom=1;" vertex="1" parent="j1YCcE-Wg3AFej6a7hgM-326">
          <mxGeometry y="30" width="180" height="30" as="geometry" />
        </mxCell>
        <mxCell id="j1YCcE-Wg3AFej6a7hgM-328" value="FK" style="shape=partialRectangle;connectable=0;fillColor=none;top=0;left=0;bottom=0;right=0;fontStyle=1;overflow=hidden;whiteSpace=wrap;html=1;" vertex="1" parent="j1YCcE-Wg3AFej6a7hgM-327">
          <mxGeometry width="30" height="30" as="geometry">
            <mxRectangle width="30" height="30" as="alternateBounds" />
          </mxGeometry>
        </mxCell>
        <mxCell id="j1YCcE-Wg3AFej6a7hgM-329" value="Member_ID" style="shape=partialRectangle;connectable=0;fillColor=none;top=0;left=0;bottom=0;right=0;align=left;spacingLeft=6;fontStyle=5;overflow=hidden;whiteSpace=wrap;html=1;" vertex="1" parent="j1YCcE-Wg3AFej6a7hgM-327">
          <mxGeometry x="30" width="150" height="30" as="geometry">
            <mxRectangle width="150" height="30" as="alternateBounds" />
          </mxGeometry>
        </mxCell>
        <mxCell id="j1YCcE-Wg3AFej6a7hgM-333" value="" style="shape=tableRow;horizontal=0;startSize=0;swimlaneHead=0;swimlaneBody=0;fillColor=none;collapsible=0;dropTarget=0;points=[[0,0.5],[1,0.5]];portConstraint=eastwest;top=0;left=0;right=0;bottom=0;" vertex="1" parent="j1YCcE-Wg3AFej6a7hgM-326">
          <mxGeometry y="60" width="180" height="30" as="geometry" />
        </mxCell>
        <mxCell id="j1YCcE-Wg3AFej6a7hgM-334" value="" style="shape=partialRectangle;connectable=0;fillColor=none;top=0;left=0;bottom=0;right=0;editable=1;overflow=hidden;whiteSpace=wrap;html=1;" vertex="1" parent="j1YCcE-Wg3AFej6a7hgM-333">
          <mxGeometry width="30" height="30" as="geometry">
            <mxRectangle width="30" height="30" as="alternateBounds" />
          </mxGeometry>
        </mxCell>
        <mxCell id="j1YCcE-Wg3AFej6a7hgM-335" value="Phone" style="shape=partialRectangle;connectable=0;fillColor=none;top=0;left=0;bottom=0;right=0;align=left;spacingLeft=6;overflow=hidden;whiteSpace=wrap;html=1;" vertex="1" parent="j1YCcE-Wg3AFej6a7hgM-333">
          <mxGeometry x="30" width="150" height="30" as="geometry">
            <mxRectangle width="150" height="30" as="alternateBounds" />
          </mxGeometry>
        </mxCell>
        <mxCell id="j1YCcE-Wg3AFej6a7hgM-339" value="Member_Borrow" style="shape=table;startSize=30;container=1;collapsible=1;childLayout=tableLayout;fixedRows=1;rowLines=0;fontStyle=1;align=center;resizeLast=1;html=1;" vertex="1" parent="1">
          <mxGeometry x="1250" y="2100" width="180" height="90" as="geometry" />
        </mxCell>
        <mxCell id="j1YCcE-Wg3AFej6a7hgM-340" value="" style="shape=tableRow;horizontal=0;startSize=0;swimlaneHead=0;swimlaneBody=0;fillColor=none;collapsible=0;dropTarget=0;points=[[0,0.5],[1,0.5]];portConstraint=eastwest;top=0;left=0;right=0;bottom=1;" vertex="1" parent="j1YCcE-Wg3AFej6a7hgM-339">
          <mxGeometry y="30" width="180" height="30" as="geometry" />
        </mxCell>
        <mxCell id="j1YCcE-Wg3AFej6a7hgM-341" value="PK" style="shape=partialRectangle;connectable=0;fillColor=none;top=0;left=0;bottom=0;right=0;fontStyle=1;overflow=hidden;whiteSpace=wrap;html=1;" vertex="1" parent="j1YCcE-Wg3AFej6a7hgM-340">
          <mxGeometry width="30" height="30" as="geometry">
            <mxRectangle width="30" height="30" as="alternateBounds" />
          </mxGeometry>
        </mxCell>
        <mxCell id="j1YCcE-Wg3AFej6a7hgM-342" value="member_ID" style="shape=partialRectangle;connectable=0;fillColor=none;top=0;left=0;bottom=0;right=0;align=left;spacingLeft=6;fontStyle=5;overflow=hidden;whiteSpace=wrap;html=1;" vertex="1" parent="j1YCcE-Wg3AFej6a7hgM-340">
          <mxGeometry x="30" width="150" height="30" as="geometry">
            <mxRectangle width="150" height="30" as="alternateBounds" />
          </mxGeometry>
        </mxCell>
        <mxCell id="j1YCcE-Wg3AFej6a7hgM-343" value="" style="shape=tableRow;horizontal=0;startSize=0;swimlaneHead=0;swimlaneBody=0;fillColor=none;collapsible=0;dropTarget=0;points=[[0,0.5],[1,0.5]];portConstraint=eastwest;top=0;left=0;right=0;bottom=0;" vertex="1" parent="j1YCcE-Wg3AFej6a7hgM-339">
          <mxGeometry y="60" width="180" height="30" as="geometry" />
        </mxCell>
        <mxCell id="j1YCcE-Wg3AFej6a7hgM-344" value="" style="shape=partialRectangle;connectable=0;fillColor=none;top=0;left=0;bottom=0;right=0;editable=1;overflow=hidden;whiteSpace=wrap;html=1;" vertex="1" parent="j1YCcE-Wg3AFej6a7hgM-343">
          <mxGeometry width="30" height="30" as="geometry">
            <mxRectangle width="30" height="30" as="alternateBounds" />
          </mxGeometry>
        </mxCell>
        <mxCell id="j1YCcE-Wg3AFej6a7hgM-345" value="Borrow_ID" style="shape=partialRectangle;connectable=0;fillColor=none;top=0;left=0;bottom=0;right=0;align=left;spacingLeft=6;overflow=hidden;whiteSpace=wrap;html=1;" vertex="1" parent="j1YCcE-Wg3AFej6a7hgM-343">
          <mxGeometry x="30" width="150" height="30" as="geometry">
            <mxRectangle width="150" height="30" as="alternateBounds" />
          </mxGeometry>
        </mxCell>
        <mxCell id="j1YCcE-Wg3AFej6a7hgM-352" value="Member_Fine" style="shape=table;startSize=30;container=1;collapsible=1;childLayout=tableLayout;fixedRows=1;rowLines=0;fontStyle=1;align=center;resizeLast=1;html=1;" vertex="1" parent="1">
          <mxGeometry x="1630" y="1440" width="180" height="180" as="geometry" />
        </mxCell>
        <mxCell id="j1YCcE-Wg3AFej6a7hgM-353" value="" style="shape=tableRow;horizontal=0;startSize=0;swimlaneHead=0;swimlaneBody=0;fillColor=none;collapsible=0;dropTarget=0;points=[[0,0.5],[1,0.5]];portConstraint=eastwest;top=0;left=0;right=0;bottom=1;" vertex="1" parent="j1YCcE-Wg3AFej6a7hgM-352">
          <mxGeometry y="30" width="180" height="30" as="geometry" />
        </mxCell>
        <mxCell id="j1YCcE-Wg3AFej6a7hgM-354" value="PK" style="shape=partialRectangle;connectable=0;fillColor=none;top=0;left=0;bottom=0;right=0;fontStyle=1;overflow=hidden;whiteSpace=wrap;html=1;" vertex="1" parent="j1YCcE-Wg3AFej6a7hgM-353">
          <mxGeometry width="30" height="30" as="geometry">
            <mxRectangle width="30" height="30" as="alternateBounds" />
          </mxGeometry>
        </mxCell>
        <mxCell id="j1YCcE-Wg3AFej6a7hgM-355" value="Return_Date" style="shape=partialRectangle;connectable=0;fillColor=none;top=0;left=0;bottom=0;right=0;align=left;spacingLeft=6;fontStyle=5;overflow=hidden;whiteSpace=wrap;html=1;" vertex="1" parent="j1YCcE-Wg3AFej6a7hgM-353">
          <mxGeometry x="30" width="150" height="30" as="geometry">
            <mxRectangle width="150" height="30" as="alternateBounds" />
          </mxGeometry>
        </mxCell>
        <mxCell id="j1YCcE-Wg3AFej6a7hgM-356" value="" style="shape=tableRow;horizontal=0;startSize=0;swimlaneHead=0;swimlaneBody=0;fillColor=none;collapsible=0;dropTarget=0;points=[[0,0.5],[1,0.5]];portConstraint=eastwest;top=0;left=0;right=0;bottom=0;" vertex="1" parent="j1YCcE-Wg3AFej6a7hgM-352">
          <mxGeometry y="60" width="180" height="30" as="geometry" />
        </mxCell>
        <mxCell id="j1YCcE-Wg3AFej6a7hgM-357" value="FK" style="shape=partialRectangle;connectable=0;fillColor=none;top=0;left=0;bottom=0;right=0;editable=1;overflow=hidden;whiteSpace=wrap;html=1;" vertex="1" parent="j1YCcE-Wg3AFej6a7hgM-356">
          <mxGeometry width="30" height="30" as="geometry">
            <mxRectangle width="30" height="30" as="alternateBounds" />
          </mxGeometry>
        </mxCell>
        <mxCell id="j1YCcE-Wg3AFej6a7hgM-358" value="Member_ID" style="shape=partialRectangle;connectable=0;fillColor=none;top=0;left=0;bottom=0;right=0;align=left;spacingLeft=6;overflow=hidden;whiteSpace=wrap;html=1;" vertex="1" parent="j1YCcE-Wg3AFej6a7hgM-356">
          <mxGeometry x="30" width="150" height="30" as="geometry">
            <mxRectangle width="150" height="30" as="alternateBounds" />
          </mxGeometry>
        </mxCell>
        <mxCell id="j1YCcE-Wg3AFej6a7hgM-359" value="" style="shape=tableRow;horizontal=0;startSize=0;swimlaneHead=0;swimlaneBody=0;fillColor=none;collapsible=0;dropTarget=0;points=[[0,0.5],[1,0.5]];portConstraint=eastwest;top=0;left=0;right=0;bottom=0;" vertex="1" parent="j1YCcE-Wg3AFej6a7hgM-352">
          <mxGeometry y="90" width="180" height="30" as="geometry" />
        </mxCell>
        <mxCell id="j1YCcE-Wg3AFej6a7hgM-360" value="FK" style="shape=partialRectangle;connectable=0;fillColor=none;top=0;left=0;bottom=0;right=0;editable=1;overflow=hidden;whiteSpace=wrap;html=1;" vertex="1" parent="j1YCcE-Wg3AFej6a7hgM-359">
          <mxGeometry width="30" height="30" as="geometry">
            <mxRectangle width="30" height="30" as="alternateBounds" />
          </mxGeometry>
        </mxCell>
        <mxCell id="j1YCcE-Wg3AFej6a7hgM-361" value="Borrow_id&amp;nbsp;" style="shape=partialRectangle;connectable=0;fillColor=none;top=0;left=0;bottom=0;right=0;align=left;spacingLeft=6;overflow=hidden;whiteSpace=wrap;html=1;" vertex="1" parent="j1YCcE-Wg3AFej6a7hgM-359">
          <mxGeometry x="30" width="150" height="30" as="geometry">
            <mxRectangle width="150" height="30" as="alternateBounds" />
          </mxGeometry>
        </mxCell>
        <mxCell id="j1YCcE-Wg3AFej6a7hgM-362" style="shape=tableRow;horizontal=0;startSize=0;swimlaneHead=0;swimlaneBody=0;fillColor=none;collapsible=0;dropTarget=0;points=[[0,0.5],[1,0.5]];portConstraint=eastwest;top=0;left=0;right=0;bottom=0;" vertex="1" parent="j1YCcE-Wg3AFej6a7hgM-352">
          <mxGeometry y="120" width="180" height="30" as="geometry" />
        </mxCell>
        <mxCell id="j1YCcE-Wg3AFej6a7hgM-363" value="FK" style="shape=partialRectangle;connectable=0;fillColor=none;top=0;left=0;bottom=0;right=0;editable=1;overflow=hidden;whiteSpace=wrap;html=1;" vertex="1" parent="j1YCcE-Wg3AFej6a7hgM-362">
          <mxGeometry width="30" height="30" as="geometry">
            <mxRectangle width="30" height="30" as="alternateBounds" />
          </mxGeometry>
        </mxCell>
        <mxCell id="j1YCcE-Wg3AFej6a7hgM-364" value="Borrow_Fine_ID" style="shape=partialRectangle;connectable=0;fillColor=none;top=0;left=0;bottom=0;right=0;align=left;spacingLeft=6;overflow=hidden;whiteSpace=wrap;html=1;" vertex="1" parent="j1YCcE-Wg3AFej6a7hgM-362">
          <mxGeometry x="30" width="150" height="30" as="geometry">
            <mxRectangle width="150" height="30" as="alternateBounds" />
          </mxGeometry>
        </mxCell>
        <mxCell id="j1YCcE-Wg3AFej6a7hgM-365" style="shape=tableRow;horizontal=0;startSize=0;swimlaneHead=0;swimlaneBody=0;fillColor=none;collapsible=0;dropTarget=0;points=[[0,0.5],[1,0.5]];portConstraint=eastwest;top=0;left=0;right=0;bottom=0;" vertex="1" parent="j1YCcE-Wg3AFej6a7hgM-352">
          <mxGeometry y="150" width="180" height="30" as="geometry" />
        </mxCell>
        <mxCell id="j1YCcE-Wg3AFej6a7hgM-366" style="shape=partialRectangle;connectable=0;fillColor=none;top=0;left=0;bottom=0;right=0;editable=1;overflow=hidden;whiteSpace=wrap;html=1;" vertex="1" parent="j1YCcE-Wg3AFej6a7hgM-365">
          <mxGeometry width="30" height="30" as="geometry">
            <mxRectangle width="30" height="30" as="alternateBounds" />
          </mxGeometry>
        </mxCell>
        <mxCell id="j1YCcE-Wg3AFej6a7hgM-367" value="Amount" style="shape=partialRectangle;connectable=0;fillColor=none;top=0;left=0;bottom=0;right=0;align=left;spacingLeft=6;overflow=hidden;whiteSpace=wrap;html=1;" vertex="1" parent="j1YCcE-Wg3AFej6a7hgM-365">
          <mxGeometry x="30" width="150" height="30" as="geometry">
            <mxRectangle width="150" height="30" as="alternateBounds" />
          </mxGeometry>
        </mxCell>
        <mxCell id="j1YCcE-Wg3AFej6a7hgM-368" value="&lt;font style=&quot;font-size: 22px;&quot;&gt;&lt;u&gt;&lt;b&gt;&lt;i&gt;ERD after Nomalization&lt;/i&gt;&lt;/b&gt;&lt;/u&gt;&lt;/font&gt;" style="text;html=1;align=center;verticalAlign=middle;resizable=0;points=[];autosize=1;strokeColor=none;fillColor=none;" vertex="1" parent="1">
          <mxGeometry x="170" y="1450" width="270" height="40" as="geometry" />
        </mxCell>
        <mxCell id="j1YCcE-Wg3AFej6a7hgM-370" value="&lt;font style=&quot;font-size: 18px;&quot;&gt;&lt;b&gt;&lt;u&gt;For reference:&lt;/u&gt;&lt;/b&gt;&lt;/font&gt;" style="text;html=1;align=center;verticalAlign=middle;resizable=0;points=[];autosize=1;strokeColor=none;fillColor=none;" vertex="1" parent="1">
          <mxGeometry x="1380" y="1300" width="140" height="40" as="geometry" />
        </mxCell>
      </root>
    </mxGraphModel>
  </diagram>
</mxfile>
